<svg width="409" height="231" viewBox="0 0 409 231" fill="none" xmlns="http://www.w3.org/2000/svg">
<g filter="url(#filter0_f_2607_4921)">
<circle cx="389" cy="130" r="10" fill="#FFE897" fill-opacity="0.75"/>
</g>
<circle cx="1.5" cy="1.5" r="1.5" transform="matrix(1 0 0 -1 385 130)" fill="#FEC489" fill-opacity="0.76"/>
<circle cx="1.5" cy="1.5" r="1.5" transform="matrix(1 0 0 -1 390 140)" fill="#FEC489" fill-opacity="0.76"/>
<path d="M20.5936 137.849C26.2804 129.023 38.2438 126.606 47.3146 132.451C47.4652 132.548 47.6134 132.648 47.7605 132.749C47.8531 132.596 47.9476 132.444 48.0448 132.293C53.8897 123.222 65.7826 120.479 74.6081 126.166C83.4335 131.853 85.8496 143.816 80.0051 152.887C79.9079 153.037 79.8082 153.187 79.7077 153.334C79.8599 153.426 80.0124 153.52 80.1631 153.617C89.2338 159.462 91.9767 171.355 86.2899 180.18C80.603 189.006 68.6402 191.422 59.5695 185.577C59.419 185.48 59.2702 185.382 59.1233 185.282C53.1832 194.004 41.5317 196.57 32.8485 190.975C24.1653 185.38 21.6851 173.709 27.1737 164.695C27.0221 164.603 26.871 164.508 26.7209 164.411C17.6504 158.566 14.907 146.674 20.5936 137.849Z" fill="url(#paint0_linear_2607_4921)"/>
<g filter="url(#filter1_f_2607_4921)">
<circle cx="57" cy="65" r="7" fill="white"/>
</g>
<g clip-path="url(#clip0_2607_4921)">
<mask id="mask0_2607_4921" style="mask-type:luminance" maskUnits="userSpaceOnUse" x="79" y="42" width="28" height="28">
<path d="M106.464 65.2348L83.2295 69.4644L79 46.2296L102.235 42L106.464 65.2348Z" fill="white"/>
</mask>
<g mask="url(#mask0_2607_4921)">
<path d="M91.9161 51.2366C79.5339 39.5597 72.9504 49.0735 88.2395 56.5504C76.5594 68.935 86.0727 75.5154 93.5525 60.2263C105.935 71.9046 112.518 62.3894 97.2292 54.914C108.897 42.5301 99.3829 35.9466 91.9161 51.2366Z" fill="url(#paint1_linear_2607_4921)" fill-opacity="0.86"/>
</g>
</g>
<g clip-path="url(#clip1_2607_4921)">
<mask id="mask1_2607_4921" style="mask-type:luminance" maskUnits="userSpaceOnUse" x="79" y="181" width="50" height="50">
<path d="M113.89 181L79 196.056L94.0557 230.946L128.946 215.89L113.89 181Z" fill="white"/>
</mask>
<g mask="url(#mask1_2607_4921)">
<path fill-rule="evenodd" clip-rule="evenodd" d="M103.427 204.523C98.8333 195.865 88.2808 192.051 79.1246 196.002C83.0573 205.116 93.2744 209.581 102.523 206.519C93.8647 211.112 90.0509 221.665 94.002 230.821C103.116 226.889 107.581 216.672 104.519 207.423C109.113 216.081 119.665 219.895 128.821 215.944C124.889 206.83 114.672 202.364 105.423 205.427C114.081 200.833 117.895 190.281 113.944 181.125C104.83 185.057 100.365 195.274 103.427 204.523ZM103.973 205.973L103.974 205.973L103.973 205.972C103.973 205.972 103.972 205.973 103.972 205.973L103.973 205.973Z" fill="url(#paint2_linear_2607_4921)" fill-opacity="0.9"/>
</g>
</g>
<g filter="url(#filter2_f_2607_4921)">
<circle cx="370" cy="159" r="4" fill="#FFDC5E"/>
</g>
<circle cx="364.5" cy="108.5" r="4.5" fill="#FEC489" fill-opacity="0.84"/>
<circle cx="1.5" cy="1.5" r="1.5" transform="matrix(1 0 0 -1 377 121)" fill="#FEC489" fill-opacity="0.76"/>
<circle cx="17.5" cy="192.5" r="5.5" fill="#FF768A"/>
<circle cx="3.5" cy="3.5" r="3.5" transform="matrix(1 0 0 -1 7 212)" fill="#FF768A"/>
<g clip-path="url(#clip2_2607_4921)">
<path fill-rule="evenodd" clip-rule="evenodd" d="M333.69 56.266C333.996 54.7788 334.012 53.2032 333.688 51.6168C332.423 45.4225 326.452 41.4108 320.35 42.6565C314.248 43.9023 310.326 49.9336 311.591 56.128C311.915 57.7143 312.547 59.1575 313.412 60.4058C310.831 58.0095 307.2 56.8501 303.522 57.601C297.42 58.8467 293.498 64.8781 294.763 71.0725C295.892 76.6048 300.776 80.396 306.155 80.2558C301.152 82.2349 298.145 87.6373 299.274 93.1695C300.539 99.3637 306.51 103.375 312.612 102.13C316.29 101.379 319.176 98.8891 320.612 95.6728C320.306 97.1601 320.29 98.7357 320.613 100.322C321.878 106.516 327.85 110.528 333.952 109.282C340.053 108.037 343.975 102.005 342.71 95.8109C342.386 94.2246 341.754 92.7814 340.89 91.533C343.471 93.9293 347.101 95.0887 350.78 94.3377C356.882 93.092 360.803 87.0605 359.539 80.8663C358.409 75.3341 353.525 71.5428 348.147 71.683C353.149 69.7039 356.157 64.3016 355.028 58.7693C353.763 52.575 347.791 48.5633 341.689 49.809C338.011 50.56 335.125 53.0498 333.69 56.266ZM339.262 89.6555C338.398 88.407 337.765 86.9639 337.442 85.3775C336.312 79.8453 339.319 74.4429 344.322 72.4638C338.944 72.604 334.06 68.8128 332.93 63.2805C332.607 61.6942 332.623 60.1186 332.929 58.6313C331.493 61.8475 328.608 64.3374 324.929 65.0883C321.251 65.8392 317.62 64.6798 315.039 62.2835C315.903 63.5319 316.536 64.975 316.86 66.5613C317.989 72.0936 314.982 77.4959 309.979 79.475C315.357 79.3348 320.242 83.1261 321.371 88.6584C321.695 90.2447 321.679 91.8204 321.373 93.3076C322.808 90.0914 325.694 87.6013 329.372 86.8504C333.05 86.0995 336.681 87.2591 339.262 89.6555Z" fill="url(#paint3_linear_2607_4921)"/>
</g>
<path d="M283.496 15.4796C282.076 12.5909 279.784 9.98859 277.337 8.68159L274.559 7.19769L274.783 10.3414C274.981 13.1104 276.423 16.2653 278.483 18.7384C275.639 17.2356 272.257 16.4784 269.511 16.8606L266.394 17.2942L268.421 19.7067C270.206 21.8317 273.225 23.5363 276.342 24.3265C273.16 24.7837 269.981 26.1609 267.985 28.0862L265.719 30.2718L268.774 31.0317C271.465 31.701 274.907 31.3042 277.891 30.1093C275.587 32.352 273.825 35.3376 273.341 38.0706L272.792 41.1733L275.709 39.9903C278.278 38.9483 280.828 36.6017 282.539 33.8783C281.993 37.0496 282.321 40.5033 283.534 43.0001L284.911 45.8347L286.575 43.1607C288.041 40.8054 288.725 37.4054 288.511 34.1936C289.93 37.0824 292.223 39.6848 294.67 40.9918L297.448 42.4755L297.224 39.332C297.026 36.563 295.583 33.4081 293.524 30.935C296.368 32.4377 299.75 33.1949 302.496 32.8128L305.613 32.379L303.586 29.9666C301.801 27.8416 298.782 26.137 295.665 25.347C298.847 24.8898 302.026 23.5125 304.022 21.5872L306.288 19.4016L303.233 18.6419C300.541 17.9725 297.099 18.3694 294.115 19.5642C296.42 17.3215 298.182 14.3358 298.666 11.6029L299.215 8.50034L296.298 9.68329C293.729 10.7254 291.179 13.072 289.467 15.7953C290.014 12.6239 289.686 9.17034 288.473 6.67346L287.095 3.83893L285.431 6.51282C283.966 8.86797 283.281 12.268 283.496 15.4796Z" fill="url(#paint4_linear_2607_4921)" fill-opacity="0.87"/>
<path d="M310.616 202.126C305.624 202.698 300.996 202.022 296.732 200.098C292.468 198.174 288.958 195.21 286.202 191.206C283.498 187.202 281.834 182.522 281.21 177.166C280.638 171.914 281.236 167.026 283.004 162.502C284.772 157.978 287.476 154.286 291.116 151.426C294.808 148.514 299.098 146.772 303.986 146.2C307.782 145.784 311.318 146.018 314.594 146.902C317.87 147.786 321.042 149.398 324.11 151.738C324.89 152.31 325.384 153.272 325.592 154.624C325.696 155.664 325.54 156.522 325.124 157.198L320.6 164.764L324.578 164.296C325.566 164.192 326.45 164.504 327.23 165.232C328.01 165.908 328.452 166.766 328.556 167.806L330.974 188.632C331.078 189.932 330.74 190.972 329.96 191.752C327.828 194.3 325.15 196.536 321.926 198.46C318.702 200.384 314.932 201.606 310.616 202.126ZM308.9 184.42C309.888 184.316 310.694 183.9 311.318 183.172C311.994 182.392 312.332 181.482 312.332 180.442L309.134 180.832C308.042 180.936 307.054 180.702 306.17 180.13C305.338 179.558 304.87 178.778 304.766 177.79L303.986 170.848C303.882 169.912 304.168 169.054 304.844 168.274C305.52 167.442 306.404 166.974 307.496 166.87L315.452 165.934C315.504 165.726 315.53 165.518 315.53 165.31C315.426 164.426 314.646 163.776 313.19 163.36C311.734 162.892 309.94 162.762 307.808 162.97C305.988 163.178 304.35 163.88 302.894 165.076C301.438 166.22 300.346 167.728 299.618 169.6C298.942 171.42 298.708 173.344 298.916 175.372C299.176 178.076 300.242 180.312 302.114 182.08C303.986 183.848 306.248 184.628 308.9 184.42Z" fill="white"/>
<path d="M239.306 204.598C238.318 204.702 237.434 204.416 236.654 203.74C235.874 203.064 235.432 202.18 235.328 201.088L230.024 154.912C229.92 153.82 230.154 152.858 230.726 152.026C231.35 151.142 232.156 150.648 233.144 150.544L243.83 149.296C245.078 149.192 246.066 149.582 246.794 150.466L260.21 166.222L257.948 151.714C257.844 150.622 258.078 149.66 258.65 148.828C259.222 147.944 260.002 147.45 260.99 147.346L272.456 146.019C273.444 145.916 274.302 146.228 275.03 146.956C275.81 147.632 276.252 148.516 276.356 149.608L281.66 195.784C281.764 196.876 281.53 197.864 280.958 198.748C280.386 199.58 279.606 200.048 278.618 200.152L268.478 201.322C267.906 201.374 267.36 201.296 266.84 201.088C266.32 200.88 265.878 200.568 265.514 200.152L251.396 183.538L253.736 198.982C253.84 200.074 253.606 201.036 253.034 201.868C252.462 202.752 251.682 203.246 250.694 203.35L239.306 204.598Z" fill="white"/>
<path d="M216.306 202.401C215.318 202.505 214.434 202.219 213.654 201.543C212.874 200.867 212.432 199.983 212.328 198.891L207.024 152.715C206.92 151.623 207.154 150.661 207.726 149.829C208.35 148.945 209.156 148.451 210.144 148.347L221.688 147.021C222.676 146.917 223.56 147.203 224.34 147.879C225.12 148.555 225.562 149.439 225.666 150.531L230.97 196.707C231.074 197.799 230.814 198.761 230.19 199.593C229.618 200.477 228.838 200.971 227.85 201.075L216.306 202.401Z" fill="white"/>
<path d="M178.531 188.917C177.439 188.813 176.555 188.319 175.879 187.435C175.203 186.551 174.917 185.589 175.021 184.549L176.269 173.473C176.373 172.433 176.867 171.575 177.751 170.899C178.635 170.171 179.623 169.885 180.715 170.041L200.137 172.225C201.229 172.329 202.113 172.823 202.789 173.707C203.465 174.591 203.751 175.553 203.647 176.593L202.399 187.669C202.295 188.709 201.801 189.593 200.917 190.321C200.033 190.997 199.045 191.257 197.953 191.101L178.531 188.917Z" fill="white"/>
<path d="M254.326 139.554C253.338 139.502 252.532 139.06 251.908 138.228C251.336 137.344 251.102 136.356 251.206 135.264L256.51 89.01C256.614 87.97 257.056 87.112 257.836 86.436C258.616 85.708 259.5 85.396 260.488 85.5L272.656 86.904C273.956 87.06 274.892 87.788 275.464 89.088L280.768 103.986L289.27 90.648C290.154 89.504 291.246 89.01 292.546 89.166L304.792 90.57C305.728 90.622 306.482 91.09 307.054 91.974C307.678 92.806 307.938 93.768 307.834 94.86L302.53 141.114C302.426 142.154 301.984 143.038 301.204 143.766C300.424 144.442 299.566 144.728 298.63 144.624L287.086 143.298C286.15 143.194 285.37 142.726 284.746 141.894C284.122 141.062 283.862 140.126 283.966 139.086L284.044 138.93L286.306 124.11L280.534 132.222C280.17 132.742 279.676 133.132 279.052 133.392C278.48 133.6 277.856 133.678 277.18 133.626C276.608 133.522 276.062 133.288 275.542 132.924C275.022 132.56 274.658 132.092 274.45 131.52L270.706 122.472L269.614 137.292C269.51 138.384 269.042 139.294 268.21 140.022C267.43 140.698 266.546 140.984 265.558 140.88L254.326 139.554Z" fill="white"/>
<path d="M221.679 133.884C217.051 132.844 213.099 130.712 209.823 127.488C206.547 124.264 204.285 120.39 203.037 115.866C201.737 111.29 201.659 106.558 202.803 101.67V101.514C203.947 96.574 206.105 92.336 209.277 88.8C212.449 85.264 216.219 82.768 220.587 81.312C225.007 79.804 229.531 79.596 234.159 80.688C238.787 81.728 242.739 83.86 246.015 87.084C249.291 90.308 251.553 94.208 252.801 98.784C254.101 103.308 254.179 108.014 253.035 112.902V113.058C251.891 117.998 249.733 122.236 246.561 125.772C243.389 129.308 239.593 131.804 235.173 133.26C230.805 134.768 226.307 134.976 221.679 133.884ZM226.281 114.696C228.257 115.164 229.999 114.67 231.507 113.214C233.067 111.758 234.107 109.912 234.627 107.676C235.095 105.752 234.861 104.088 233.925 102.684C233.041 101.28 231.637 100.37 229.713 99.954L229.479 99.876C227.451 99.408 225.735 99.694 224.331 100.734C222.927 101.722 222.043 103.048 221.679 104.712C221.211 106.74 221.341 108.794 222.069 110.874C222.849 112.954 224.253 114.228 226.281 114.696Z" fill="white"/>
<path d="M175.679 147.884C171.051 146.844 167.099 144.712 163.823 141.488C160.547 138.264 158.285 134.39 157.037 129.866C155.737 125.29 155.659 120.558 156.803 115.67V115.514C157.947 110.574 160.105 106.336 163.277 102.8C166.449 99.264 170.219 96.768 174.587 95.312C179.007 93.804 183.531 93.596 188.159 94.688C192.787 95.728 196.739 97.86 200.015 101.084C203.291 104.308 205.553 108.208 206.801 112.784C208.101 117.308 208.179 122.014 207.035 126.902V127.058C205.891 131.998 203.733 136.236 200.561 139.772C197.389 143.308 193.593 145.804 189.173 147.26C184.805 148.768 180.307 148.976 175.679 147.884ZM180.281 128.696C182.257 129.164 183.999 128.67 185.507 127.214C187.067 125.758 188.107 123.912 188.627 121.676C189.095 119.752 188.861 118.088 187.925 116.684C187.041 115.28 185.637 114.37 183.713 113.954L183.479 113.876C181.451 113.408 179.735 113.694 178.331 114.734C176.927 115.722 176.043 117.048 175.679 118.712C175.211 120.74 175.341 122.794 176.069 124.874C176.849 126.954 178.253 128.228 180.281 128.696Z" fill="white"/>
<path d="M122.092 138.152C121.104 138.048 120.298 137.58 119.674 136.748C119.102 135.864 118.894 134.875 119.05 133.784L124.276 87.6075C124.38 86.5155 124.822 85.6315 125.602 84.9555C126.434 84.2275 127.344 83.9155 128.332 84.0195L139.798 85.3455C140.786 85.4495 141.566 85.9435 142.138 86.8275C142.762 87.6595 142.996 88.6215 142.84 89.7135L139.33 120.758L156.022 122.708C157.01 122.76 157.79 123.228 158.362 124.112C158.934 124.944 159.168 125.88 159.064 126.92L157.738 138.152C157.634 139.243 157.192 140.128 156.412 140.804C155.684 141.532 154.826 141.844 153.838 141.74L122.092 138.152Z" fill="white"/>
<path d="M75.144 139.152C74.156 139.048 73.35 138.58 72.726 137.748C72.154 136.864 71.92 135.875 72.024 134.784L77.328 88.6075C77.432 87.5155 77.874 86.6315 78.654 85.9555C79.434 85.2275 80.318 84.9155 81.306 85.0195L102.6 87.4375C108.684 88.1135 113.104 90.4015 115.86 94.3015C118.044 97.3695 118.902 100.983 118.434 105.144C117.966 108.94 116.51 112.059 114.066 114.503C117.186 117.832 118.434 122.043 117.81 127.139C117.238 132.287 115.028 136.162 111.18 138.762C107.384 141.31 102.522 142.245 96.594 141.569L75.144 139.152ZM95.892 128.934C98.492 129.194 100.312 128.882 101.352 127.998C102.444 127.114 103.068 125.995 103.224 124.643C103.64 121.523 101.534 119.677 96.906 119.105L91.68 118.56C90.744 118.456 89.912 118.69 89.184 119.262C88.456 119.833 88.04 120.587 87.936 121.523L87.624 124.565C87.52 125.501 87.754 126.333 88.326 127.062C88.898 127.79 89.652 128.206 90.588 128.31L95.892 128.934ZM96.984 109.121C98.96 109.381 100.494 109.095 101.586 108.263C102.678 107.379 103.302 106.236 103.458 104.832C103.562 103.688 103.276 102.543 102.6 101.399C101.924 100.255 100.39 99.5535 97.998 99.2935L94.254 98.8255C93.318 98.7215 92.46 98.9555 91.68 99.5275C90.952 100.099 90.562 100.853 90.51 101.789L90.12 104.91C90.016 105.846 90.25 106.704 90.822 107.483C91.394 108.212 92.148 108.627 93.084 108.731L96.984 109.121Z" fill="white"/>
<defs>
<filter id="filter0_f_2607_4921" x="369.9" y="110.9" width="38.2" height="38.2" filterUnits="userSpaceOnUse" color-interpolation-filters="sRGB">
<feFlood flood-opacity="0" result="BackgroundImageFix"/>
<feBlend mode="normal" in="SourceGraphic" in2="BackgroundImageFix" result="shape"/>
<feGaussianBlur stdDeviation="4.55" result="effect1_foregroundBlur_2607_4921"/>
</filter>
<filter id="filter1_f_2607_4921" x="40.9" y="48.9" width="32.2" height="32.2" filterUnits="userSpaceOnUse" color-interpolation-filters="sRGB">
<feFlood flood-opacity="0" result="BackgroundImageFix"/>
<feBlend mode="normal" in="SourceGraphic" in2="BackgroundImageFix" result="shape"/>
<feGaussianBlur stdDeviation="4.55" result="effect1_foregroundBlur_2607_4921"/>
</filter>
<filter id="filter2_f_2607_4921" x="356.9" y="145.9" width="26.2" height="26.2" filterUnits="userSpaceOnUse" color-interpolation-filters="sRGB">
<feFlood flood-opacity="0" result="BackgroundImageFix"/>
<feBlend mode="normal" in="SourceGraphic" in2="BackgroundImageFix" result="shape"/>
<feGaussianBlur stdDeviation="4.55" result="effect1_foregroundBlur_2607_4921"/>
</filter>
<linearGradient id="paint0_linear_2607_4921" x1="20.8798" y1="137.405" x2="130.652" y2="211.73" gradientUnits="userSpaceOnUse">
<stop stop-color="#FF8198"/>
<stop offset="0.120192" stop-color="#FF8198"/>
<stop offset="0.416676" stop-color="#FF6370"/>
<stop offset="0.789716" stop-color="#F9F62D"/>
</linearGradient>
<linearGradient id="paint1_linear_2607_4921" x1="86.0225" y1="66.6755" x2="96.8492" y2="46.041" gradientUnits="userSpaceOnUse">
<stop stop-color="#FFD9A0"/>
<stop offset="1" stop-color="#FFF5F1"/>
</linearGradient>
<linearGradient id="paint2_linear_2607_4921" x1="109.878" y1="182.731" x2="97.3708" y2="219.686" gradientUnits="userSpaceOnUse">
<stop stop-color="#B0B9FF"/>
<stop offset="1" stop-color="#E7E9FF"/>
</linearGradient>
<linearGradient id="paint3_linear_2607_4921" x1="343.551" y1="37.9198" x2="304.376" y2="132.671" gradientUnits="userSpaceOnUse">
<stop stop-color="#FFDC5E"/>
<stop offset="1" stop-color="#FF87F9"/>
</linearGradient>
<linearGradient id="paint4_linear_2607_4921" x1="265.719" y1="30.2718" x2="306.288" y2="19.4014" gradientUnits="userSpaceOnUse">
<stop stop-color="#FFC9AE"/>
<stop offset="1" stop-color="#F8FBFE"/>
</linearGradient>
<clipPath id="clip0_2607_4921">
<rect width="23.6166" height="23.6166" fill="white" transform="matrix(0.983833 -0.17909 -0.17909 -0.983833 83.2295 69.4644)"/>
</clipPath>
<clipPath id="clip1_2607_4921">
<rect width="38" height="38" fill="white" transform="translate(79 196.056) rotate(-23.341)"/>
</clipPath>
<clipPath id="clip2_2607_4921">
<rect width="68" height="68" fill="white" transform="translate(286.886 49.4883) rotate(-11.5385)"/>
</clipPath>
</defs>
</svg>
