<?xml version="1.0" encoding="UTF-8"?>
<svg id="Layer_1" xmlns="http://www.w3.org/2000/svg" xmlns:xlink="http://www.w3.org/1999/xlink" version="1.1" viewBox="0 0 192 192">
  <!-- Generator: Adobe Illustrator 29.5.0, SVG Export Plug-In . SVG Version: 2.1.0 Build 137)  -->
  <defs>
    <style>
      .st0 {
        fill: url(#linear-gradient);
      }

      .st1 {
        fill: #fff;
      }
    </style>
    <linearGradient id="linear-gradient" x1="49.52" y1="30.92" x2="134.6" y2="147.57" gradientTransform="translate(0 194) scale(1 -1)" gradientUnits="userSpaceOnUse">
      <stop offset="0" stop-color="#f498c0"/>
      <stop offset=".21" stop-color="#f5a2ab"/>
      <stop offset=".63" stop-color="#fabf75"/>
      <stop offset="1" stop-color="#ffdb41"/>
    </linearGradient>
  </defs>
  <rect class="st1" x="-.97" y="-1" width="196.63" height="196.27"/>
  <path class="st0" d="M170.57,104.1c-4.06-10.11-13.67-16.33-23.91-16.6,13.16-5.67,19.47-20.81,14.1-34.18-5.46-13.57-20.88-20.15-34.46-14.7-5.52,2.22-9.86,6.1-12.73,10.83.45-4.18-.08-8.53-1.76-12.7-5.46-13.57-20.88-20.15-34.46-14.7-13.57,5.46-20.15,20.88-14.7,34.46.43,1.07.94,2.08,1.49,3.06-7.12-5.11-16.6-6.6-25.33-3.09-13.57,5.46-20.15,20.88-14.7,34.46,4.03,10.03,13.51,16.23,23.66,16.58-12.79,5.85-18.86,20.75-13.56,33.93,5.46,13.57,20.88,20.15,34.46,14.7,5.29-2.12,9.49-5.77,12.36-10.22-.26,3.84.3,7.8,1.83,11.61,5.46,13.57,20.88,20.15,34.46,14.7,13.57-5.46,20.15-20.88,14.7-34.46-.26-.63-.55-1.24-.85-1.84,7.04,4.74,16.22,6.02,24.69,2.62,13.57-5.46,20.15-20.88,14.7-34.46h0ZM97.58,123.08c-5.29,2.12-9.49,5.77-12.36,10.22.26-3.84-.3-7.8-1.83-11.61-4.03-10.03-13.51-16.23-23.66-16.58,12.79-5.85,18.86-20.75,13.56-33.93-.43-1.07-.94-2.08-1.49-3.06,7.12,5.11,16.6,6.6,25.33,3.09,5.52-2.22,9.86-6.1,12.73-10.83-.45,4.18.08,8.53,1.76,12.7,4.06,10.11,13.67,16.33,23.91,16.6-13.16,5.67-19.47,20.81-14.1,34.18.26.63.55,1.24.85,1.84-7.04-4.74-16.22-6.02-24.69-2.62h0Z"/>
</svg>