<?xml version="1.0" encoding="UTF-8"?>
<svg id="Layer_1" xmlns="http://www.w3.org/2000/svg" xmlns:xlink="http://www.w3.org/1999/xlink" version="1.1" viewBox="0 0 512 512">
  <!-- Generator: Adobe Illustrator 29.5.0, SVG Export Plug-In . SVG Version: 2.1.0 Build 137)  -->
  <defs>
    <style>
      .st0 {
        fill: url(#linear-gradient);
      }

      .st1 {
        fill: #fff;
      }
    </style>
    <linearGradient id="linear-gradient" x1="126.42" y1="433.7" x2="355.65" y2="119.4" gradientUnits="userSpaceOnUse">
      <stop offset="0" stop-color="#f498c0"/>
      <stop offset=".21" stop-color="#f5a2ab"/>
      <stop offset=".63" stop-color="#fabf75"/>
      <stop offset="1" stop-color="#ffdb41"/>
    </linearGradient>
  </defs>
  <rect class="st1" x="-4.95" y="-3.89" width="520.43" height="519.81"/>
  <path class="st0" d="M452.55,274.77c-10.95-27.25-36.82-44.01-64.42-44.72,35.45-15.27,52.47-56.07,37.99-92.09-14.7-36.57-56.26-54.3-92.84-39.61-14.88,5.98-26.56,16.44-34.29,29.17,1.22-11.26-.21-22.97-4.73-34.22-14.7-36.57-56.26-54.3-92.84-39.61-36.57,14.7-54.3,56.26-39.61,92.84,1.16,2.88,2.54,5.6,4.01,8.24-19.18-13.76-44.73-17.78-68.25-8.33-36.57,14.7-54.3,56.26-39.61,92.84,10.86,27.03,36.41,43.72,63.76,44.68-34.45,15.76-50.82,55.9-36.54,91.42,14.7,36.57,56.26,54.3,92.84,39.61,14.24-5.72,25.57-15.55,33.3-27.54-.69,10.35.8,21.01,4.93,31.28,14.7,36.57,56.26,54.3,92.84,39.61,36.57-14.7,54.3-56.26,39.61-92.84-.69-1.71-1.49-3.33-2.29-4.95,18.96,12.76,43.71,16.22,66.52,7.05,36.57-14.7,54.3-56.26,39.61-92.84ZM255.88,325.9c-14.24,5.72-25.57,15.55-33.3,27.54.69-10.35-.8-21.01-4.93-31.28-10.86-27.03-36.41-43.72-63.76-44.68,34.45-15.76,50.82-55.9,36.54-91.42-1.16-2.88-2.54-5.6-4.01-8.24,19.18,13.76,44.73,17.78,68.25,8.33,14.88-5.98,26.56-16.44,34.29-29.17-1.22,11.26.21,22.97,4.73,34.22,10.95,27.25,36.82,44.01,64.42,44.72-35.45,15.27-52.47,56.07-37.99,92.09.69,1.71,1.49,3.33,2.28,4.95-18.96-12.76-43.71-16.22-66.52-7.05Z"/>
</svg>