<svg width="82" height="82" viewBox="0 0 82 82" fill="none" xmlns="http://www.w3.org/2000/svg">
<g clip-path="url(#clip0_867_8048)">
<path fill-rule="evenodd" clip-rule="evenodd" d="M47.6898 21.2658C47.9955 19.7786 48.0118 18.203 47.688 16.6167C46.4234 10.4223 40.4516 6.41064 34.3497 7.65637C28.2479 8.90207 24.3264 14.9334 25.591 21.1278C25.9149 22.7141 26.5474 24.1573 27.4118 25.4056C24.8307 23.0093 21.1998 21.8499 17.5216 22.6008C11.4197 23.8466 7.49827 29.878 8.76286 36.0723C9.89229 41.6046 14.7764 45.3958 20.1546 45.2556C15.1518 47.2347 12.1446 52.6371 13.274 58.1693C14.5386 64.3635 20.5103 68.3753 26.6122 67.1295C30.2904 66.3786 33.1764 63.8889 34.6116 60.6726C34.3058 62.1599 34.2895 63.7355 34.6134 65.3219C35.8779 71.5161 41.8497 75.5278 47.9515 74.2821C54.0534 73.0364 57.9749 67.0049 56.7103 60.8107C56.3865 59.2244 55.7538 57.7812 54.8896 56.5328C57.4706 58.9291 61.1015 60.0885 64.7799 59.3375C70.8818 58.0918 74.8032 52.0604 73.5387 45.8662C72.4093 40.3339 67.5249 36.5426 62.1467 36.6828C67.1495 34.7037 70.1569 29.3014 69.0275 23.7691C67.7629 17.5748 61.7911 13.5631 55.6892 14.8088C52.0108 15.5598 49.125 18.0496 47.6898 21.2658ZM53.2623 54.6553C52.3981 53.4069 51.7654 51.9637 51.4416 50.3773C50.3122 44.8451 53.3193 39.4427 58.3221 37.4636C52.9439 37.6039 48.0598 33.8126 46.9304 28.2803C46.6066 26.694 46.6229 25.1184 46.9286 23.6311C45.4934 26.8474 42.6076 29.3372 38.9292 30.0882C35.2511 30.8391 31.6202 29.6796 29.0391 27.2833C29.9035 28.5317 30.536 29.9748 30.8599 31.5612C31.9893 37.0934 28.9821 42.4957 23.9793 44.4748C29.3575 44.3346 34.2416 48.1259 35.371 53.6582C35.6949 55.2445 35.6786 56.8202 35.3727 58.3075C36.808 55.0912 39.6939 52.6011 43.372 51.8502C47.0504 51.0993 50.6813 52.259 53.2623 54.6553Z" fill="url(#paint0_linear_867_8048)"/>
</g>
<defs>
<linearGradient id="paint0_linear_867_8048" x1="57.5514" y1="2.91966" x2="18.376" y2="97.6707" gradientUnits="userSpaceOnUse">
<stop stop-color="#FFDC5E"/>
<stop offset="1" stop-color="#FF87F9"/>
</linearGradient>
<clipPath id="clip0_867_8048">
<rect width="68" height="68" fill="white" transform="translate(0.88623 14.488) rotate(-11.5385)"/>
</clipPath>
</defs>
</svg>
