<svg width="16" height="16" viewBox="0 0 16 16" fill="none" xmlns="http://www.w3.org/2000/svg">
<path d="M8.30762 0C9.05968 0 9.72024 1.43195 10.1055 3.60156C11.7872 2.5014 13.1628 2.0672 13.6963 2.60059C14.207 3.11133 13.8305 4.39401 12.832 5.97852C14.7566 6.37185 16 6.99167 16 7.69238C16 8.43482 14.6046 9.08931 12.4814 9.47656C13.7418 11.3052 14.2697 12.8269 13.7021 13.3945C13.1682 13.9284 11.7903 13.4921 10.1064 12.3896C9.72144 14.5641 9.06068 16 8.30762 16C7.56414 16 6.90853 14.6008 6.52148 12.4727C4.69114 13.7349 3.16858 14.2643 2.60059 13.6963C2.00974 13.1054 2.60522 11.4805 3.97949 9.55176C1.5999 9.17856 4.99251e-05 8.48726 0 7.69238C-3.29137e-08 6.93941 1.43533 6.2776 3.60938 5.89258C2.50751 4.20921 2.07169 2.83168 2.60547 2.29785C3.17294 1.73038 4.69436 2.25783 6.52246 3.51758C6.90973 1.39487 7.56527 4.68922e-05 8.30762 0Z" fill="#EDCA61"/>
</svg>
