<svg width="73" height="71" viewBox="0 0 73 71" fill="none" xmlns="http://www.w3.org/2000/svg">
<path fill-rule="evenodd" clip-rule="evenodd" d="M42.5692 62.5771C42.4189 62.4802 42.2703 62.3817 42.1235 62.2816C36.1833 71.0043 24.5314 73.5694 15.8482 67.9744C7.1651 62.3794 4.68584 50.7089 10.1742 41.6951C10.0224 41.6027 9.87129 41.5082 9.72098 41.4113C0.650195 35.5665 -2.09307 23.6738 3.59373 14.8482C9.28053 6.02257 21.2439 3.6061 30.3147 9.45087C30.4651 9.5478 30.6138 9.64639 30.7608 9.74661C30.8532 9.59466 30.9478 9.44346 31.0447 9.29305C36.8895 0.222271 48.7822 -2.521 57.6078 3.1658C66.4334 8.8526 68.8499 20.816 63.0051 29.8868C62.9082 30.0372 62.8097 30.1858 62.7095 30.3328C62.8614 30.4251 63.0125 30.5197 63.1629 30.6166C72.2337 36.4614 74.9769 48.3541 69.2901 57.1797C63.6033 66.0054 51.64 68.4218 42.5692 62.5771Z" fill="url(#paint0_linear_867_8012)"/>
<defs>
<linearGradient id="paint0_linear_867_8012" x1="3.87974" y1="14.4043" x2="113.652" y2="88.7297" gradientUnits="userSpaceOnUse">
<stop stop-color="#FF8198"/>
<stop offset="0.120192" stop-color="#FF8198"/>
<stop offset="0.416676" stop-color="#FF6370"/>
<stop offset="0.789716" stop-color="#F9F62D"/>
</linearGradient>
</defs>
</svg>
