<svg width="20" height="22" viewBox="0 0 20 22" fill="none" xmlns="http://www.w3.org/2000/svg">
<path id="Vector" d="M1.3375 6.86195L1.34546 6.85593L9.03832 1.03022L9.04054 1.02852C9.31873 0.816094 9.62874 0.710742 9.99571 0.710742C10.3625 0.710742 10.677 0.816062 10.9625 1.03086C10.9628 1.03104 10.963 1.03121 10.9632 1.03139L18.6546 6.85455L18.6546 6.85462L18.6634 6.86112C18.8597 7.00489 19.0132 7.18681 19.1275 7.41662L19.1286 7.41881C19.2435 7.64801 19.3 7.88675 19.3 8.1436V20.5607C19.3 20.7475 19.2389 20.9061 19.0779 21.0672C18.9168 21.2283 18.7582 21.2893 18.5714 21.2893H13.7371C13.5854 21.2893 13.4924 21.2458 13.4097 21.1634C13.3259 21.079 13.2829 20.9851 13.2829 20.835V14.0222C13.2829 13.5192 13.1051 13.0645 12.7464 12.7058C12.3873 12.3467 11.9324 12.1679 11.4286 12.1679H8.57143C8.06809 12.1679 7.61344 12.3464 7.25511 12.7057C6.89571 13.064 6.71714 13.5188 6.71714 14.0222V20.8365C6.71714 20.9869 6.67392 21.0797 6.59074 21.1629C6.50756 21.2461 6.41469 21.2893 6.26429 21.2893H1.42857C1.24181 21.2893 1.08318 21.2283 0.922117 21.0672C0.761058 20.9061 0.7 20.7475 0.7 20.5607V8.1436C0.7 7.88675 0.756513 7.64801 0.871448 7.41881C0.986871 7.18863 1.14118 7.00618 1.33746 6.86189L1.3375 6.86195Z" stroke="#5B5B5B" stroke-width="1.4"/>
</svg>
