<svg width="409" height="231" viewBox="0 0 409 231" fill="none" xmlns="http://www.w3.org/2000/svg">
<g filter="url(#filter0_f_2607_4921)">
<circle cx="389" cy="129.917" r="10" fill="#FFE897" fill-opacity="0.75"/>
</g>
<circle cx="1.5" cy="1.5" r="1.5" transform="matrix(1 0 0 -1 385 129.917)" fill="#FEC489" fill-opacity="0.76"/>
<circle cx="1.5" cy="1.5" r="1.5" transform="matrix(1 0 0 -1 390 139.917)" fill="#FEC489" fill-opacity="0.76"/>
<path d="M20.5936 137.766C26.2804 128.94 38.2438 126.523 47.3146 132.368C47.4652 132.465 47.6134 132.565 47.7605 132.666C47.8531 132.513 47.9476 132.361 48.0448 132.21C53.8897 123.139 65.7826 120.396 74.6081 126.083C83.4335 131.77 85.8496 143.733 80.0051 152.803C79.9079 152.954 79.8082 153.103 79.7077 153.251C79.8599 153.343 80.0124 153.437 80.1631 153.534C89.2338 159.378 91.9767 171.271 86.2899 180.097C80.603 188.922 68.6402 191.339 59.5695 185.494C59.419 185.397 59.2702 185.299 59.1233 185.198C53.1832 193.921 41.5317 196.487 32.8485 190.892C24.1653 185.297 21.6851 173.626 27.1737 164.612C27.0221 164.519 26.871 164.425 26.7209 164.328C17.6504 158.483 14.907 146.591 20.5936 137.766Z" fill="url(#paint0_linear_2607_4921)"/>
<g filter="url(#filter1_f_2607_4921)">
<circle cx="57" cy="64.9172" r="7" fill="white"/>
</g>
<g clip-path="url(#clip0_2607_4921)">
<mask id="mask0_2607_4921" style="mask-type:luminance" maskUnits="userSpaceOnUse" x="79" y="41" width="28" height="29">
<path d="M106.464 65.152L83.2295 69.3815L79 46.1467L102.235 41.9172L106.464 65.152Z" fill="white"/>
</mask>
<g mask="url(#mask0_2607_4921)">
<path d="M91.9161 51.1537C79.5339 39.4769 72.9504 48.9907 88.2395 56.4676C76.5594 68.8522 86.0727 75.4326 93.5525 60.1435C105.935 71.8218 112.518 62.3065 97.2292 54.8311C108.897 42.4472 99.3829 35.8637 91.9161 51.1537Z" fill="url(#paint1_linear_2607_4921)" fill-opacity="0.86"/>
</g>
</g>
<g clip-path="url(#clip1_2607_4921)">
<mask id="mask1_2607_4921" style="mask-type:luminance" maskUnits="userSpaceOnUse" x="79" y="180" width="50" height="51">
<path d="M113.89 180.917L79 195.973L94.0557 230.863L128.946 215.807L113.89 180.917Z" fill="white"/>
</mask>
<g mask="url(#mask1_2607_4921)">
<path fill-rule="evenodd" clip-rule="evenodd" d="M103.427 204.44C98.8333 195.782 88.2808 191.968 79.1246 195.919C83.0573 205.033 93.2744 209.499 102.523 206.436C93.8647 211.03 90.0509 221.582 94.002 230.739C103.116 226.806 107.581 216.589 104.519 207.341C109.113 215.998 119.665 219.812 128.821 215.861C124.889 206.747 114.672 202.282 105.423 205.344C114.081 200.751 117.895 190.198 113.944 181.042C104.83 184.975 100.365 195.192 103.427 204.44ZM103.973 205.891L103.974 205.891L103.973 205.889C103.973 205.89 103.972 205.89 103.972 205.89L103.973 205.891Z" fill="url(#paint2_linear_2607_4921)" fill-opacity="0.9"/>
</g>
</g>
<g filter="url(#filter2_f_2607_4921)">
<circle cx="370" cy="158.917" r="4" fill="#FFDC5E"/>
</g>
<circle cx="364.5" cy="108.417" r="4.5" fill="#FEC489" fill-opacity="0.84"/>
<circle cx="1.5" cy="1.5" r="1.5" transform="matrix(1 0 0 -1 377 120.917)" fill="#FEC489" fill-opacity="0.76"/>
<circle cx="17.5" cy="192.417" r="5.5" fill="#FF768A"/>
<circle cx="3.5" cy="3.5" r="3.5" transform="matrix(1 0 0 -1 7 211.917)" fill="#FF768A"/>
<g clip-path="url(#clip2_2607_4921)">
<path fill-rule="evenodd" clip-rule="evenodd" d="M333.69 56.1831C333.996 54.6958 334.012 53.1202 333.688 51.5339C332.423 45.3395 326.452 41.3279 320.35 42.5736C314.248 43.8193 310.326 49.8507 311.591 56.045C311.915 57.6314 312.547 59.0745 313.412 60.3229C310.831 57.9266 307.2 56.7671 303.522 57.5181C297.42 58.7638 293.498 64.7952 294.763 70.9896C295.892 76.5218 300.776 80.3131 306.155 80.1729C301.152 82.1519 298.145 87.5543 299.274 93.0866C300.539 99.2808 306.51 103.293 312.612 102.047C316.29 101.296 319.176 98.8061 320.612 95.5899C320.306 97.0771 320.29 98.6528 320.613 100.239C321.878 106.433 327.85 110.445 333.952 109.199C340.053 107.954 343.975 101.922 342.71 95.728C342.386 94.1416 341.754 92.6985 340.89 91.4501C343.471 93.8464 347.101 95.0057 350.78 94.2548C356.882 93.009 360.803 86.9776 359.539 80.7834C358.409 75.2511 353.525 71.4599 348.147 71.6001C353.149 69.621 356.157 64.2186 355.028 58.6864C353.763 52.492 347.791 48.4803 341.689 49.726C338.011 50.477 335.125 52.9668 333.69 56.1831ZM339.262 89.5725C338.398 88.3241 337.765 86.8809 337.442 85.2946C336.312 79.7623 339.319 74.36 344.322 72.3809C338.944 72.5211 334.06 68.7298 332.93 63.1975C332.607 61.6112 332.623 60.0356 332.929 58.5484C331.493 61.7646 328.608 64.2544 324.929 65.0054C321.251 65.7563 317.62 64.5969 315.039 62.2006C315.903 63.4489 316.536 64.8921 316.86 66.4784C317.989 72.0107 314.982 77.413 309.979 79.392C315.357 79.2518 320.242 83.0432 321.371 88.5754C321.695 90.1618 321.679 91.7374 321.373 93.2247C322.808 90.0084 325.694 87.5184 329.372 86.7675C333.05 86.0165 336.681 87.1762 339.262 89.5725Z" fill="url(#paint3_linear_2607_4921)"/>
</g>
<path d="M283.496 15.3967C282.076 12.508 279.784 9.90567 277.337 8.59867L274.559 7.11477L274.783 10.2585C274.981 13.0275 276.423 16.1824 278.483 18.6555C275.639 17.1527 272.257 16.3955 269.511 16.7777L266.394 17.2113L268.421 19.6238C270.206 21.7488 273.225 23.4534 276.342 24.2436C273.16 24.7008 269.981 26.078 267.985 28.0033L265.719 30.1889L268.774 30.9488C271.465 31.6181 274.907 31.2213 277.891 30.0263C275.587 32.2691 273.825 35.2547 273.341 37.9877L272.792 41.0904L275.709 39.9074C278.278 38.8654 280.828 36.5188 282.539 33.7953C281.993 36.9667 282.321 40.4204 283.534 42.9172L284.911 45.7518L286.575 43.0778C288.041 40.7225 288.725 37.3224 288.511 34.1107C289.93 36.9995 292.223 39.6019 294.67 40.9089L297.448 42.3926L297.224 39.2491C297.026 36.4801 295.583 33.3252 293.524 30.8521C296.368 32.3548 299.75 33.112 302.496 32.7299L305.613 32.2961L303.586 29.8837C301.801 27.7587 298.782 26.0541 295.665 25.2641C298.847 24.8068 302.026 23.4296 304.022 21.5043L306.288 19.3187L303.233 18.559C300.541 17.8896 297.099 18.2865 294.115 19.4812C296.42 17.2385 298.182 14.2529 298.666 11.5199L299.215 8.41743L296.298 9.60037C293.729 10.6425 291.179 12.9891 289.467 15.7124C290.014 12.541 289.686 9.08742 288.473 6.59054L287.095 3.75601L285.431 6.4299C283.966 8.78505 283.281 12.1851 283.496 15.3967Z" fill="url(#paint4_linear_2607_4921)" fill-opacity="0.87"/>
<path d="M310.616 202.043C305.624 202.615 300.996 201.939 296.732 200.015C292.468 198.091 288.958 195.127 286.202 191.123C283.498 187.119 281.834 182.439 281.21 177.083C280.638 171.831 281.236 166.943 283.004 162.419C284.772 157.895 287.476 154.203 291.116 151.343C294.808 148.431 299.098 146.689 303.986 146.117C307.782 145.701 311.318 145.935 314.594 146.819C317.87 147.703 321.042 149.315 324.11 151.655C324.89 152.227 325.384 153.189 325.592 154.541C325.696 155.581 325.54 156.439 325.124 157.115L320.6 164.681L324.578 164.213C325.566 164.109 326.45 164.421 327.23 165.149C328.01 165.825 328.452 166.683 328.556 167.723L330.974 188.549C331.078 189.849 330.74 190.889 329.96 191.669C327.828 194.217 325.15 196.453 321.926 198.377C318.702 200.301 314.932 201.523 310.616 202.043ZM308.9 184.337C309.888 184.233 310.694 183.817 311.318 183.089C311.994 182.309 312.332 181.399 312.332 180.359L309.134 180.749C308.042 180.853 307.054 180.619 306.17 180.047C305.338 179.475 304.87 178.695 304.766 177.707L303.986 170.765C303.882 169.829 304.168 168.971 304.844 168.191C305.52 167.359 306.404 166.891 307.496 166.787L315.452 165.851C315.504 165.643 315.53 165.435 315.53 165.227C315.426 164.343 314.646 163.693 313.19 163.277C311.734 162.809 309.94 162.679 307.808 162.887C305.988 163.095 304.35 163.797 302.894 164.993C301.438 166.137 300.346 167.645 299.618 169.517C298.942 171.337 298.708 173.261 298.916 175.289C299.176 177.993 300.242 180.229 302.114 181.997C303.986 183.765 306.248 184.545 308.9 184.337Z" fill="white"/>
<path d="M239.306 204.515C238.318 204.619 237.434 204.333 236.654 203.657C235.874 202.981 235.432 202.097 235.328 201.005L230.024 154.829C229.92 153.737 230.154 152.775 230.726 151.943C231.35 151.059 232.156 150.565 233.144 150.461L243.83 149.213C245.078 149.109 246.066 149.499 246.794 150.383L260.21 166.139L257.948 151.631C257.844 150.539 258.078 149.577 258.65 148.745C259.222 147.861 260.002 147.367 260.99 147.263L272.456 145.937C273.444 145.833 274.302 146.145 275.03 146.873C275.81 147.549 276.252 148.433 276.356 149.525L281.66 195.701C281.764 196.793 281.53 197.781 280.958 198.665C280.386 199.497 279.606 199.965 278.618 200.069L268.478 201.239C267.906 201.291 267.36 201.213 266.84 201.005C266.32 200.797 265.878 200.485 265.514 200.069L251.396 183.455L253.736 198.899C253.84 199.991 253.606 200.953 253.034 201.785C252.462 202.669 251.682 203.163 250.694 203.267L239.306 204.515Z" fill="white"/>
<path d="M216.306 202.318C215.318 202.422 214.434 202.136 213.654 201.46C212.874 200.784 212.432 199.9 212.328 198.808L207.024 152.632C206.92 151.54 207.154 150.578 207.726 149.746C208.35 148.862 209.156 148.368 210.144 148.264L221.688 146.938C222.676 146.834 223.56 147.12 224.34 147.796C225.12 148.472 225.562 149.356 225.666 150.448L230.97 196.624C231.074 197.716 230.814 198.678 230.19 199.51C229.618 200.394 228.838 200.888 227.85 200.992L216.306 202.318Z" fill="white"/>
<path d="M178.531 188.834C177.439 188.73 176.555 188.236 175.879 187.352C175.203 186.468 174.917 185.506 175.021 184.466L176.269 173.39C176.373 172.35 176.867 171.492 177.751 170.816C178.635 170.088 179.623 169.802 180.715 169.958L200.137 172.142C201.229 172.246 202.113 172.74 202.789 173.624C203.465 174.508 203.751 175.47 203.647 176.51L202.399 187.586C202.295 188.626 201.801 189.51 200.917 190.238C200.033 190.914 199.045 191.174 197.953 191.018L178.531 188.834Z" fill="white"/>
<path d="M254.326 139.471C253.338 139.419 252.532 138.977 251.908 138.145C251.336 137.261 251.102 136.273 251.206 135.181L256.51 88.9272C256.614 87.8872 257.056 87.0292 257.836 86.3532C258.616 85.6252 259.5 85.3132 260.488 85.4172L272.656 86.8212C273.956 86.9772 274.892 87.7052 275.464 89.0052L280.768 103.903L289.27 90.5652C290.154 89.4212 291.246 88.9272 292.546 89.0832L304.792 90.4872C305.728 90.5392 306.482 91.0072 307.054 91.8912C307.678 92.7232 307.938 93.6852 307.834 94.7772L302.53 141.031C302.426 142.071 301.984 142.955 301.204 143.683C300.424 144.359 299.566 144.645 298.63 144.541L287.086 143.215C286.15 143.111 285.37 142.643 284.746 141.811C284.122 140.979 283.862 140.043 283.966 139.003L284.044 138.847L286.306 124.027L280.534 132.139C280.17 132.659 279.676 133.049 279.052 133.309C278.48 133.517 277.856 133.595 277.18 133.543C276.608 133.439 276.062 133.205 275.542 132.841C275.022 132.477 274.658 132.009 274.45 131.437L270.706 122.389L269.614 137.209C269.51 138.301 269.042 139.211 268.21 139.939C267.43 140.615 266.546 140.901 265.558 140.797L254.326 139.471Z" fill="white"/>
<path d="M221.679 133.801C217.051 132.761 213.099 130.629 209.823 127.405C206.547 124.181 204.285 120.307 203.037 115.783C201.737 111.207 201.659 106.475 202.803 101.587V101.431C203.947 96.4911 206.105 92.2531 209.277 88.7171C212.449 85.1811 216.219 82.6851 220.587 81.2291C225.007 79.7211 229.531 79.5131 234.159 80.6051C238.787 81.6451 242.739 83.7771 246.015 87.0011C249.291 90.2251 251.553 94.1251 252.801 98.7011C254.101 103.225 254.179 107.931 253.035 112.819V112.975C251.891 117.915 249.733 122.153 246.561 125.689C243.389 129.225 239.593 131.721 235.173 133.177C230.805 134.685 226.307 134.893 221.679 133.801ZM226.281 114.613C228.257 115.081 229.999 114.587 231.507 113.131C233.067 111.675 234.107 109.829 234.627 107.593C235.095 105.669 234.861 104.005 233.925 102.601C233.041 101.197 231.637 100.287 229.713 99.8711L229.479 99.7931C227.451 99.3251 225.735 99.6111 224.331 100.651C222.927 101.639 222.043 102.965 221.679 104.629C221.211 106.657 221.341 108.711 222.069 110.791C222.849 112.871 224.253 114.145 226.281 114.613Z" fill="white"/>
<path d="M175.679 147.801C171.051 146.761 167.099 144.629 163.823 141.405C160.547 138.181 158.285 134.307 157.037 129.783C155.737 125.207 155.659 120.475 156.803 115.587V115.431C157.947 110.491 160.105 106.253 163.277 102.717C166.449 99.1811 170.219 96.6851 174.587 95.2291C179.007 93.7211 183.531 93.5131 188.159 94.6051C192.787 95.6451 196.739 97.7771 200.015 101.001C203.291 104.225 205.553 108.125 206.801 112.701C208.101 117.225 208.179 121.931 207.035 126.819V126.975C205.891 131.915 203.733 136.153 200.561 139.689C197.389 143.225 193.593 145.721 189.173 147.177C184.805 148.685 180.307 148.893 175.679 147.801ZM180.281 128.613C182.257 129.081 183.999 128.587 185.507 127.131C187.067 125.675 188.107 123.829 188.627 121.593C189.095 119.669 188.861 118.005 187.925 116.601C187.041 115.197 185.637 114.287 183.713 113.871L183.479 113.793C181.451 113.325 179.735 113.611 178.331 114.651C176.927 115.639 176.043 116.965 175.679 118.629C175.211 120.657 175.341 122.711 176.069 124.791C176.849 126.871 178.253 128.145 180.281 128.613Z" fill="white"/>
<path d="M122.092 138.069C121.104 137.965 120.298 137.497 119.674 136.665C119.102 135.781 118.894 134.793 119.05 133.701L124.276 87.5247C124.38 86.4327 124.822 85.5487 125.602 84.8727C126.434 84.1447 127.344 83.8327 128.332 83.9367L139.798 85.2627C140.786 85.3667 141.566 85.8607 142.138 86.7447C142.762 87.5767 142.996 88.5387 142.84 89.6307L139.33 120.675L156.022 122.625C157.01 122.677 157.79 123.145 158.362 124.029C158.934 124.861 159.168 125.797 159.064 126.837L157.738 138.069C157.634 139.161 157.192 140.045 156.412 140.721C155.684 141.449 154.826 141.761 153.838 141.657L122.092 138.069Z" fill="white"/>
<path d="M75.144 139.069C74.156 138.965 73.35 138.497 72.726 137.665C72.154 136.781 71.92 135.793 72.024 134.701L77.328 88.5247C77.432 87.4327 77.874 86.5487 78.654 85.8727C79.434 85.1447 80.318 84.8327 81.306 84.9367L102.6 87.3547C108.684 88.0307 113.104 90.3187 115.86 94.2187C118.044 97.2867 118.902 100.901 118.434 105.061C117.966 108.857 116.51 111.977 114.066 114.421C117.186 117.749 118.434 121.961 117.81 127.057C117.238 132.205 115.028 136.079 111.18 138.679C107.384 141.227 102.522 142.163 96.594 141.487L75.144 139.069ZM95.892 128.851C98.492 129.111 100.312 128.799 101.352 127.915C102.444 127.031 103.068 125.913 103.224 124.561C103.64 121.441 101.534 119.595 96.906 119.023L91.68 118.477C90.744 118.373 89.912 118.607 89.184 119.179C88.456 119.751 88.04 120.505 87.936 121.441L87.624 124.483C87.52 125.419 87.754 126.251 88.326 126.979C88.898 127.707 89.652 128.123 90.588 128.227L95.892 128.851ZM96.984 109.039C98.96 109.299 100.494 109.013 101.586 108.181C102.678 107.297 103.302 106.153 103.458 104.749C103.562 103.605 103.276 102.461 102.6 101.317C101.924 100.173 100.39 99.4707 97.998 99.2107L94.254 98.7427C93.318 98.6387 92.46 98.8727 91.68 99.4447C90.952 100.017 90.562 100.771 90.51 101.707L90.12 104.827C90.016 105.763 90.25 106.621 90.822 107.401C91.394 108.129 92.148 108.545 93.084 108.649L96.984 109.039Z" fill="white"/>
<defs>
<filter id="filter0_f_2607_4921" x="369.9" y="110.817" width="38.2" height="38.2" filterUnits="userSpaceOnUse" color-interpolation-filters="sRGB">
<feFlood flood-opacity="0" result="BackgroundImageFix"/>
<feBlend mode="normal" in="SourceGraphic" in2="BackgroundImageFix" result="shape"/>
<feGaussianBlur stdDeviation="4.55" result="effect1_foregroundBlur_2607_4921"/>
</filter>
<filter id="filter1_f_2607_4921" x="40.9" y="48.8172" width="32.2" height="32.2" filterUnits="userSpaceOnUse" color-interpolation-filters="sRGB">
<feFlood flood-opacity="0" result="BackgroundImageFix"/>
<feBlend mode="normal" in="SourceGraphic" in2="BackgroundImageFix" result="shape"/>
<feGaussianBlur stdDeviation="4.55" result="effect1_foregroundBlur_2607_4921"/>
</filter>
<filter id="filter2_f_2607_4921" x="356.9" y="145.817" width="26.2" height="26.2" filterUnits="userSpaceOnUse" color-interpolation-filters="sRGB">
<feFlood flood-opacity="0" result="BackgroundImageFix"/>
<feBlend mode="normal" in="SourceGraphic" in2="BackgroundImageFix" result="shape"/>
<feGaussianBlur stdDeviation="4.55" result="effect1_foregroundBlur_2607_4921"/>
</filter>
<linearGradient id="paint0_linear_2607_4921" x1="20.8798" y1="137.321" x2="130.652" y2="211.647" gradientUnits="userSpaceOnUse">
<stop stop-color="#FF8198"/>
<stop offset="0.120192" stop-color="#FF8198"/>
<stop offset="0.416676" stop-color="#FF6370"/>
<stop offset="0.789716" stop-color="#F9F62D"/>
</linearGradient>
<linearGradient id="paint1_linear_2607_4921" x1="86.0225" y1="66.5926" x2="96.8492" y2="45.9582" gradientUnits="userSpaceOnUse">
<stop stop-color="#FFD9A0"/>
<stop offset="1" stop-color="#FFF5F1"/>
</linearGradient>
<linearGradient id="paint2_linear_2607_4921" x1="109.878" y1="182.649" x2="97.3708" y2="219.603" gradientUnits="userSpaceOnUse">
<stop stop-color="#B0B9FF"/>
<stop offset="1" stop-color="#E7E9FF"/>
</linearGradient>
<linearGradient id="paint3_linear_2607_4921" x1="343.551" y1="37.8369" x2="304.376" y2="132.588" gradientUnits="userSpaceOnUse">
<stop stop-color="#FFDC5E"/>
<stop offset="1" stop-color="#FF87F9"/>
</linearGradient>
<linearGradient id="paint4_linear_2607_4921" x1="265.719" y1="30.1889" x2="306.288" y2="19.3185" gradientUnits="userSpaceOnUse">
<stop stop-color="#FFC9AE"/>
<stop offset="1" stop-color="#F8FBFE"/>
</linearGradient>
<clipPath id="clip0_2607_4921">
<rect width="23.6166" height="23.6166" fill="white" transform="matrix(0.983833 -0.17909 -0.17909 -0.983833 83.2295 69.3815)"/>
</clipPath>
<clipPath id="clip1_2607_4921">
<rect width="38" height="38" fill="white" transform="translate(79 195.973) rotate(-23.341)"/>
</clipPath>
<clipPath id="clip2_2607_4921">
<rect width="68" height="68" fill="white" transform="translate(286.886 49.4052) rotate(-11.5385)"/>
</clipPath>
</defs>
</svg>
