<svg width="390" height="241" viewBox="0 0 390 241" fill="none" xmlns="http://www.w3.org/2000/svg">
<g filter="url(#filter0_f_1354_3771)">
<circle cx="54" cy="67" r="7" fill="white"/>
</g>
<g clip-path="url(#clip0_1354_3771)">
<mask id="mask0_1354_3771" style="mask-type:luminance" maskUnits="userSpaceOnUse" x="73" y="41" width="33" height="33">
<path d="M84.6169 41.8354L105.629 52.6169L94.8474 73.6289L73.8354 62.8474L84.6169 41.8354Z" fill="white"/>
</mask>
<g mask="url(#mask0_1354_3771)">
<path d="M87.6443 61.7963C90.3653 78.597 101.379 75.0531 93.7952 59.8165C110.6 57.0955 107.055 46.0849 91.8157 53.6666C89.0955 36.8646 78.0814 40.4099 85.6656 55.6451C68.8713 58.3731 72.4152 69.3866 87.6443 61.7963Z" fill="url(#paint0_linear_1354_3771)" fill-opacity="0.86"/>
</g>
</g>
<g clip-path="url(#clip1_1354_3771)">
<mask id="mask1_1354_3771" style="mask-type:luminance" maskUnits="userSpaceOnUse" x="70" y="187" width="54" height="54">
<path d="M100.134 187.289L70.2894 210.812L93.8124 240.656L123.656 217.133L100.134 187.289Z" fill="white"/>
</mask>
<g mask="url(#mask1_1354_3771)">
<path fill-rule="evenodd" clip-rule="evenodd" d="M96.0725 212.712C89.4064 205.527 78.228 204.555 70.396 210.728C76.5405 218.524 87.5624 220.212 95.7117 214.873C88.5266 221.539 87.5553 232.718 93.7284 240.55C101.524 234.405 103.212 223.383 97.8734 215.234C104.539 222.419 115.718 223.391 123.55 217.217C117.406 209.422 106.384 207.734 98.2342 213.072C105.419 206.406 106.391 195.228 100.218 187.396C92.422 193.54 90.7343 204.562 96.0725 212.712ZM96.9728 213.973L96.9736 213.973L96.9731 213.972C96.9728 213.972 96.9723 213.973 96.9723 213.973L96.9728 213.973Z" fill="url(#paint1_linear_1354_3771)" fill-opacity="0.9"/>
</g>
</g>
<g filter="url(#filter1_f_1354_3771)">
<circle cx="386" cy="132" r="10" fill="#FFE897" fill-opacity="0.75"/>
</g>
<g filter="url(#filter2_f_1354_3771)">
<circle cx="367" cy="161" r="4" fill="#FFDC5E"/>
</g>
<circle cx="1.5" cy="1.5" r="1.5" transform="matrix(1 0 0 -1 382 132)" fill="#FEC489" fill-opacity="0.76"/>
<circle cx="1.5" cy="1.5" r="1.5" transform="matrix(1 0 0 -1 374 123)" fill="#FEC489" fill-opacity="0.76"/>
<circle cx="1.5" cy="1.5" r="1.5" transform="matrix(1 0 0 -1 387 142)" fill="#FEC489" fill-opacity="0.76"/>
<circle cx="326.5" cy="173.5" r="1.5" fill="#FEC489" fill-opacity="0.86"/>
<circle cx="3.5" cy="3.5" r="3.5" transform="matrix(1 0 0 -1 4 214)" fill="#FF768A"/>
<circle cx="1.5" cy="233.5" r="1.5" fill="#FF768A"/>
<g filter="url(#filter3_d_1354_3771)">
<path d="M307.616 204.126C302.624 204.698 297.996 204.022 293.732 202.098C289.468 200.174 285.958 197.21 283.202 193.206C280.498 189.202 278.834 184.522 278.21 179.166C277.638 173.914 278.236 169.026 280.004 164.502C281.772 159.978 284.476 156.286 288.116 153.426C291.808 150.514 296.098 148.772 300.986 148.2C304.782 147.784 308.318 148.018 311.594 148.902C314.87 149.786 318.042 151.398 321.11 153.738C321.89 154.31 322.384 155.272 322.592 156.624C322.696 157.664 322.54 158.522 322.124 159.198L317.6 166.764L321.578 166.296C322.566 166.192 323.45 166.504 324.23 167.232C325.01 167.908 325.452 168.766 325.556 169.806L327.974 190.632C328.078 191.932 327.74 192.972 326.96 193.752C324.828 196.3 322.15 198.536 318.926 200.46C315.702 202.384 311.932 203.606 307.616 204.126ZM305.9 186.42C306.888 186.316 307.694 185.9 308.318 185.172C308.994 184.392 309.332 183.482 309.332 182.442L306.134 182.832C305.042 182.936 304.054 182.702 303.17 182.13C302.338 181.558 301.87 180.778 301.766 179.79L300.986 172.848C300.882 171.912 301.168 171.054 301.844 170.274C302.52 169.442 303.404 168.974 304.496 168.87L312.452 167.934C312.504 167.726 312.53 167.518 312.53 167.31C312.426 166.426 311.646 165.776 310.19 165.36C308.734 164.892 306.94 164.762 304.808 164.97C302.988 165.178 301.35 165.88 299.894 167.076C298.438 168.22 297.346 169.728 296.618 171.6C295.942 173.42 295.708 175.344 295.916 177.372C296.176 180.076 297.242 182.312 299.114 184.08C300.986 185.848 303.248 186.628 305.9 186.42Z" fill="white"/>
<path d="M236.306 206.598C235.318 206.702 234.434 206.416 233.654 205.74C232.874 205.064 232.432 204.18 232.328 203.088L227.024 156.912C226.92 155.82 227.154 154.858 227.726 154.026C228.35 153.142 229.156 152.648 230.144 152.544L240.83 151.296C242.078 151.192 243.066 151.582 243.794 152.466L257.21 168.222L254.948 153.714C254.844 152.622 255.078 151.66 255.65 150.828C256.222 149.944 257.002 149.45 257.99 149.346L269.456 148.019C270.444 147.916 271.302 148.228 272.03 148.956C272.81 149.632 273.252 150.516 273.356 151.608L278.66 197.784C278.764 198.876 278.53 199.864 277.958 200.748C277.386 201.58 276.606 202.048 275.618 202.152L265.478 203.322C264.906 203.374 264.36 203.296 263.84 203.088C263.32 202.88 262.878 202.568 262.514 202.152L248.396 185.538L250.736 200.982C250.84 202.074 250.606 203.036 250.034 203.868C249.462 204.752 248.682 205.246 247.694 205.35L236.306 206.598Z" fill="white"/>
<path d="M213.306 204.401C212.318 204.505 211.434 204.219 210.654 203.543C209.874 202.867 209.432 201.983 209.328 200.891L204.024 154.715C203.92 153.623 204.154 152.661 204.726 151.829C205.35 150.945 206.156 150.451 207.144 150.347L218.688 149.021C219.676 148.917 220.56 149.203 221.34 149.879C222.12 150.555 222.562 151.439 222.666 152.531L227.97 198.707C228.074 199.799 227.814 200.761 227.19 201.593C226.618 202.477 225.838 202.971 224.85 203.075L213.306 204.401Z" fill="white"/>
<path d="M175.531 190.917C174.439 190.813 173.555 190.319 172.879 189.435C172.203 188.551 171.917 187.589 172.021 186.549L173.269 175.473C173.373 174.433 173.867 173.575 174.751 172.899C175.635 172.171 176.623 171.885 177.715 172.041L197.137 174.225C198.229 174.329 199.113 174.823 199.789 175.707C200.465 176.591 200.751 177.553 200.647 178.593L199.399 189.669C199.295 190.709 198.801 191.593 197.917 192.321C197.033 192.997 196.045 193.257 194.953 193.101L175.531 190.917Z" fill="white"/>
<path d="M251.326 141.554C250.338 141.502 249.532 141.06 248.908 140.228C248.336 139.344 248.102 138.356 248.206 137.264L253.51 91.01C253.614 89.97 254.056 89.112 254.836 88.436C255.616 87.708 256.5 87.396 257.488 87.5L269.656 88.904C270.956 89.06 271.892 89.788 272.464 91.088L277.768 105.986L286.27 92.648C287.154 91.504 288.246 91.01 289.546 91.166L301.792 92.57C302.728 92.622 303.482 93.09 304.054 93.974C304.678 94.806 304.938 95.768 304.834 96.86L299.53 143.114C299.426 144.154 298.984 145.038 298.204 145.766C297.424 146.442 296.566 146.728 295.63 146.624L284.086 145.298C283.15 145.194 282.37 144.726 281.746 143.894C281.122 143.062 280.862 142.126 280.966 141.086L281.044 140.93L283.306 126.11L277.534 134.222C277.17 134.742 276.676 135.132 276.052 135.392C275.48 135.6 274.856 135.678 274.18 135.626C273.608 135.522 273.062 135.288 272.542 134.924C272.022 134.56 271.658 134.092 271.45 133.52L267.706 124.472L266.614 139.292C266.51 140.384 266.042 141.294 265.21 142.022C264.43 142.698 263.546 142.984 262.558 142.88L251.326 141.554Z" fill="white"/>
<path d="M218.679 135.884C214.051 134.844 210.099 132.712 206.823 129.488C203.547 126.264 201.285 122.39 200.037 117.866C198.737 113.29 198.659 108.558 199.803 103.67V103.514C200.947 98.574 203.105 94.336 206.277 90.8C209.449 87.264 213.219 84.768 217.587 83.312C222.007 81.804 226.531 81.596 231.159 82.688C235.787 83.728 239.739 85.86 243.015 89.084C246.291 92.308 248.553 96.208 249.801 100.784C251.101 105.308 251.179 110.014 250.035 114.902V115.058C248.891 119.998 246.733 124.236 243.561 127.772C240.389 131.308 236.593 133.804 232.173 135.26C227.805 136.768 223.307 136.976 218.679 135.884ZM223.281 116.696C225.257 117.164 226.999 116.67 228.507 115.214C230.067 113.758 231.107 111.912 231.627 109.676C232.095 107.752 231.861 106.088 230.925 104.684C230.041 103.28 228.637 102.37 226.713 101.954L226.479 101.876C224.451 101.408 222.735 101.694 221.331 102.734C219.927 103.722 219.043 105.048 218.679 106.712C218.211 108.74 218.341 110.794 219.069 112.874C219.849 114.954 221.253 116.228 223.281 116.696Z" fill="white"/>
<path d="M172.679 149.884C168.051 148.844 164.099 146.712 160.823 143.488C157.547 140.264 155.285 136.39 154.037 131.866C152.737 127.29 152.659 122.558 153.803 117.67V117.514C154.947 112.574 157.105 108.336 160.277 104.8C163.449 101.264 167.219 98.768 171.587 97.312C176.007 95.804 180.531 95.596 185.159 96.688C189.787 97.728 193.739 99.86 197.015 103.084C200.291 106.308 202.553 110.208 203.801 114.784C205.101 119.308 205.179 124.014 204.035 128.902V129.058C202.891 133.998 200.733 138.236 197.561 141.772C194.389 145.308 190.593 147.804 186.173 149.26C181.805 150.768 177.307 150.976 172.679 149.884ZM177.281 130.696C179.257 131.164 180.999 130.67 182.507 129.214C184.067 127.758 185.107 125.912 185.627 123.676C186.095 121.752 185.861 120.088 184.925 118.684C184.041 117.28 182.637 116.37 180.713 115.954L180.479 115.876C178.451 115.408 176.735 115.694 175.331 116.734C173.927 117.722 173.043 119.048 172.679 120.712C172.211 122.74 172.341 124.794 173.069 126.874C173.849 128.954 175.253 130.228 177.281 130.696Z" fill="white"/>
<path d="M119.092 140.152C118.104 140.048 117.298 139.58 116.674 138.748C116.102 137.864 115.894 136.876 116.05 135.784L121.276 89.6075C121.38 88.5155 121.822 87.6315 122.602 86.9555C123.434 86.2275 124.344 85.9155 125.332 86.0195L136.798 87.3455C137.786 87.4495 138.566 87.9435 139.138 88.8275C139.762 89.6595 139.996 90.6215 139.84 91.7135L136.33 122.758L153.022 124.708C154.01 124.76 154.79 125.228 155.362 126.112C155.934 126.944 156.168 127.88 156.064 128.92L154.738 140.152C154.634 141.244 154.192 142.128 153.412 142.804C152.684 143.532 151.826 143.844 150.838 143.74L119.092 140.152Z" fill="white"/>
<path d="M72.144 141.152C71.156 141.048 70.35 140.58 69.726 139.748C69.154 138.864 68.92 137.876 69.024 136.784L74.328 90.6075C74.432 89.5155 74.874 88.6315 75.654 87.9555C76.434 87.2275 77.318 86.9155 78.306 87.0195L99.6 89.4375C105.684 90.1135 110.104 92.4015 112.86 96.3015C115.044 99.3695 115.902 102.983 115.434 107.144C114.966 110.94 113.51 114.06 111.066 116.503C114.186 119.832 115.434 124.043 114.81 129.139C114.238 134.287 112.028 138.162 108.18 140.762C104.384 143.31 99.522 144.246 93.594 143.569L72.144 141.152ZM92.892 130.934C95.492 131.194 97.312 130.882 98.352 129.998C99.444 129.114 100.068 127.995 100.224 126.643C100.64 123.523 98.534 121.677 93.906 121.105L88.68 120.56C87.744 120.456 86.912 120.69 86.184 121.262C85.456 121.834 85.04 122.587 84.936 123.523L84.624 126.565C84.52 127.501 84.754 128.334 85.326 129.062C85.898 129.79 86.652 130.206 87.588 130.31L92.892 130.934ZM93.984 111.121C95.96 111.381 97.494 111.095 98.586 110.263C99.678 109.379 100.302 108.235 100.458 106.832C100.562 105.688 100.276 104.543 99.6 103.399C98.924 102.255 97.39 101.553 94.998 101.293L91.254 100.825C90.318 100.722 89.46 100.956 88.68 101.528C87.952 102.099 87.562 102.853 87.51 103.789L87.12 106.91C87.016 107.846 87.25 108.704 87.822 109.483C88.394 110.211 89.148 110.627 90.084 110.731L93.984 111.121Z" fill="white"/>
</g>
<path d="M273.323 22.0664C270.192 22.7807 267.147 24.3716 265.331 26.3811L263.269 28.6626L266.385 29.1193C269.129 29.5217 272.525 28.8423 275.392 27.4423C273.297 29.7814 271.811 32.7811 271.576 35.4281L271.309 38.4333L274.11 37.0505C276.578 35.8325 278.908 33.373 280.368 30.6275C280.11 33.6979 280.75 36.9608 282.186 39.2342L283.816 41.8152L285.233 39.1212C286.481 36.7481 286.855 33.4476 286.35 30.4056C288.028 33.0345 290.549 35.3142 293.108 36.3456L296.012 37.5166L295.504 34.5402C295.056 31.9186 293.332 29.038 291.054 26.8611C294.026 28.0444 297.467 28.47 300.17 27.8656L303.239 27.1794L301 25.0576C299.027 23.1886 295.863 21.8282 292.683 21.348C295.814 20.6337 298.859 19.043 300.675 17.0333L302.737 14.7518L299.622 14.2951C296.878 13.8927 293.482 14.5721 290.614 15.9722C292.709 13.6329 294.196 10.6334 294.431 7.98634L294.697 4.98129L291.896 6.3638C289.429 7.58189 287.099 10.0414 285.638 12.7869C285.897 9.71651 285.257 6.4537 283.821 4.18023L282.191 1.59919L280.774 4.29329C279.526 6.66637 279.151 9.96681 279.656 13.0089C277.979 10.3799 275.457 8.10015 272.899 7.06875L269.995 5.89794L270.503 8.87423C270.951 11.4959 272.675 14.3763 274.952 16.5533C271.98 15.3699 268.54 14.9444 265.836 15.5488L262.767 16.235L265.007 18.3568C266.979 20.2258 270.144 21.5863 273.323 22.0664Z" fill="url(#paint2_linear_1354_3771)" fill-opacity="0.87"/>
<defs>
<filter id="filter0_f_1354_3771" x="37.9" y="50.9" width="32.2" height="32.2" filterUnits="userSpaceOnUse" color-interpolation-filters="sRGB">
<feFlood flood-opacity="0" result="BackgroundImageFix"/>
<feBlend mode="normal" in="SourceGraphic" in2="BackgroundImageFix" result="shape"/>
<feGaussianBlur stdDeviation="4.55" result="effect1_foregroundBlur_1354_3771"/>
</filter>
<filter id="filter1_f_1354_3771" x="366.9" y="112.9" width="38.2" height="38.2" filterUnits="userSpaceOnUse" color-interpolation-filters="sRGB">
<feFlood flood-opacity="0" result="BackgroundImageFix"/>
<feBlend mode="normal" in="SourceGraphic" in2="BackgroundImageFix" result="shape"/>
<feGaussianBlur stdDeviation="4.55" result="effect1_foregroundBlur_1354_3771"/>
</filter>
<filter id="filter2_f_1354_3771" x="353.9" y="147.9" width="26.2" height="26.2" filterUnits="userSpaceOnUse" color-interpolation-filters="sRGB">
<feFlood flood-opacity="0" result="BackgroundImageFix"/>
<feBlend mode="normal" in="SourceGraphic" in2="BackgroundImageFix" result="shape"/>
<feGaussianBlur stdDeviation="4.55" result="effect1_foregroundBlur_1354_3771"/>
</filter>
<filter id="filter3_d_1354_3771" x="64.6" y="77.6" width="273.792" height="139.418" filterUnits="userSpaceOnUse" color-interpolation-filters="sRGB">
<feFlood flood-opacity="0" result="BackgroundImageFix"/>
<feColorMatrix in="SourceAlpha" type="matrix" values="0 0 0 0 0 0 0 0 0 0 0 0 0 0 0 0 0 0 127 0" result="hardAlpha"/>
<feOffset dx="3" dy="3"/>
<feGaussianBlur stdDeviation="3.7"/>
<feComposite in2="hardAlpha" operator="out"/>
<feColorMatrix type="matrix" values="0 0 0 0 0.173357 0 0 0 0 0.0113154 0 0 0 0 0.523024 0 0 0 0.54 0"/>
<feBlend mode="normal" in2="BackgroundImageFix" result="effect1_dropShadow_1354_3771"/>
<feBlend mode="normal" in="SourceGraphic" in2="effect1_dropShadow_1354_3771" result="shape"/>
</filter>
<linearGradient id="paint0_linear_1354_3771" x1="101.716" y1="53.1306" x2="80.5681" y2="62.9177" gradientUnits="userSpaceOnUse">
<stop stop-color="#FFD9A0"/>
<stop offset="1" stop-color="#FFF5F1"/>
</linearGradient>
<linearGradient id="paint1_linear_1354_3771" x1="96.7015" y1="189.995" x2="94.1199" y2="228.923" gradientUnits="userSpaceOnUse">
<stop stop-color="#B0B9FF"/>
<stop offset="1" stop-color="#E7E9FF"/>
</linearGradient>
<linearGradient id="paint2_linear_1354_3771" x1="283.816" y1="41.8152" x2="282.323" y2="1.59427" gradientUnits="userSpaceOnUse">
<stop stop-color="#FFC9AE"/>
<stop offset="1" stop-color="#F8FBFE"/>
</linearGradient>
<clipPath id="clip0_1354_3771">
<rect width="23.6166" height="23.6166" fill="white" transform="matrix(-0.889713 -0.456521 -0.456521 0.889713 105.629 52.6169)"/>
</clipPath>
<clipPath id="clip1_1354_3771">
<rect width="38" height="38" fill="white" transform="translate(70.2894 210.812) rotate(-38.245)"/>
</clipPath>
</defs>
</svg>
