<svg width="390" height="241" viewBox="0 0 390 241" fill="none" xmlns="http://www.w3.org/2000/svg">
<g clip-path="url(#clip0_40_141)">
<g filter="url(#filter0_f_40_141)">
<circle cx="51" cy="66.9172" r="7" fill="white"/>
</g>
<g clip-path="url(#clip1_40_141)">
<mask id="mask0_40_141" style="mask-type:luminance" maskUnits="userSpaceOnUse" x="73" y="43" width="28" height="29">
<path d="M100.464 67.152L77.2295 71.3815L73 48.1467L96.2348 43.9172L100.464 67.152Z" fill="white"/>
</mask>
<g mask="url(#mask0_40_141)">
<path d="M85.9161 53.1537C73.5339 41.4769 66.9504 50.9907 82.2395 58.4676C70.5594 70.8522 80.0727 77.4326 87.5525 62.1435C99.9348 73.8218 106.518 64.3065 91.2292 56.8312C102.897 44.4473 93.3829 37.8637 85.9161 53.1537Z" fill="url(#paint0_linear_40_141)" fill-opacity="0.86"/>
</g>
</g>
<g clip-path="url(#clip2_40_141)">
<mask id="mask1_40_141" style="mask-type:luminance" maskUnits="userSpaceOnUse" x="69" y="188" width="50" height="51">
<path d="M103.89 188.917L69 203.973L84.0557 238.863L118.946 223.807L103.89 188.917Z" fill="white"/>
</mask>
<g mask="url(#mask1_40_141)">
<path fill-rule="evenodd" clip-rule="evenodd" d="M93.4272 212.44C88.8333 203.782 78.2808 199.968 69.1246 203.919C73.0573 213.033 83.2744 217.499 92.5226 214.436C83.8647 219.03 80.0509 229.582 84.002 238.739C93.1157 234.806 97.5814 224.589 94.5187 215.341C99.1125 223.998 109.665 227.812 118.821 223.861C114.889 214.747 104.672 210.282 95.4233 213.344C104.081 208.751 107.895 198.198 103.944 189.042C94.8303 192.975 90.3645 203.192 93.4272 212.44ZM93.9727 213.891L93.9735 213.891L93.9733 213.889C93.9729 213.89 93.9723 213.89 93.9723 213.89L93.9727 213.891Z" fill="url(#paint1_linear_40_141)" fill-opacity="0.9"/>
</g>
</g>
<g filter="url(#filter1_f_40_141)">
<circle cx="383" cy="131.917" r="10" fill="#FFE897" fill-opacity="0.75"/>
</g>
<g filter="url(#filter2_f_40_141)">
<circle cx="364" cy="160.917" r="4" fill="#FFDC5E"/>
</g>
<circle cx="358.5" cy="110.417" r="4.5" fill="#FEC489" fill-opacity="0.84"/>
<circle cx="1.5" cy="1.5" r="1.5" transform="matrix(1 0 0 -1 379 131.917)" fill="#FEC489" fill-opacity="0.76"/>
<circle cx="1.5" cy="1.5" r="1.5" transform="matrix(1 0 0 -1 371 122.917)" fill="#FEC489" fill-opacity="0.76"/>
<circle cx="1.5" cy="1.5" r="1.5" transform="matrix(1 0 0 -1 384 141.917)" fill="#FEC489" fill-opacity="0.76"/>
<circle cx="323.5" cy="173.417" r="1.5" fill="#FEC489" fill-opacity="0.86"/>
<circle cx="11.5" cy="194.417" r="5.5" fill="#FF768A"/>
<circle cx="3.5" cy="3.5" r="3.5" transform="matrix(1 0 0 -1 1 213.917)" fill="#FF768A"/>
<g filter="url(#filter3_d_40_141)">
<path d="M304.616 204.043C299.624 204.615 294.996 203.939 290.732 202.015C286.468 200.091 282.958 197.127 280.202 193.123C277.498 189.119 275.834 184.439 275.21 179.083C274.638 173.831 275.236 168.943 277.004 164.419C278.772 159.895 281.476 156.203 285.116 153.343C288.808 150.431 293.098 148.689 297.986 148.117C301.782 147.701 305.318 147.935 308.594 148.819C311.87 149.703 315.042 151.315 318.11 153.655C318.89 154.227 319.384 155.189 319.592 156.541C319.696 157.581 319.54 158.439 319.124 159.115L314.6 166.681L318.578 166.213C319.566 166.109 320.45 166.421 321.23 167.149C322.01 167.825 322.452 168.683 322.556 169.723L324.974 190.549C325.078 191.849 324.74 192.889 323.96 193.669C321.828 196.217 319.15 198.453 315.926 200.377C312.702 202.301 308.932 203.523 304.616 204.043ZM302.9 186.337C303.888 186.233 304.694 185.817 305.318 185.089C305.994 184.309 306.332 183.399 306.332 182.359L303.134 182.749C302.042 182.853 301.054 182.619 300.17 182.047C299.338 181.475 298.87 180.695 298.766 179.707L297.986 172.765C297.882 171.829 298.168 170.971 298.844 170.191C299.52 169.359 300.404 168.891 301.496 168.787L309.452 167.851C309.504 167.643 309.53 167.435 309.53 167.227C309.426 166.343 308.646 165.693 307.19 165.277C305.734 164.809 303.94 164.679 301.808 164.887C299.988 165.095 298.35 165.797 296.894 166.993C295.438 168.137 294.346 169.645 293.618 171.517C292.942 173.337 292.708 175.261 292.916 177.289C293.176 179.993 294.242 182.229 296.114 183.997C297.986 185.765 300.248 186.545 302.9 186.337Z" fill="white"/>
<path d="M233.306 206.515C232.318 206.619 231.434 206.333 230.654 205.657C229.874 204.981 229.432 204.097 229.328 203.005L224.024 156.829C223.92 155.737 224.154 154.775 224.726 153.943C225.35 153.059 226.156 152.565 227.144 152.461L237.83 151.213C239.078 151.109 240.066 151.499 240.794 152.383L254.21 168.139L251.948 153.631C251.844 152.539 252.078 151.577 252.65 150.745C253.222 149.861 254.002 149.367 254.99 149.263L266.456 147.937C267.444 147.833 268.302 148.145 269.03 148.873C269.81 149.549 270.252 150.433 270.356 151.525L275.66 197.701C275.764 198.793 275.53 199.781 274.958 200.665C274.386 201.497 273.606 201.965 272.618 202.069L262.478 203.239C261.906 203.291 261.36 203.213 260.84 203.005C260.32 202.797 259.878 202.485 259.514 202.069L245.396 185.455L247.736 200.899C247.84 201.991 247.606 202.953 247.034 203.785C246.462 204.669 245.682 205.163 244.694 205.267L233.306 206.515Z" fill="white"/>
<path d="M210.306 204.318C209.318 204.422 208.434 204.136 207.654 203.46C206.874 202.784 206.432 201.9 206.328 200.808L201.024 154.632C200.92 153.54 201.154 152.578 201.726 151.746C202.35 150.862 203.156 150.368 204.144 150.264L215.688 148.938C216.676 148.834 217.56 149.12 218.34 149.796C219.12 150.472 219.562 151.356 219.666 152.448L224.97 198.624C225.074 199.716 224.814 200.678 224.19 201.51C223.618 202.394 222.838 202.888 221.85 202.992L210.306 204.318Z" fill="white"/>
<path d="M172.531 190.835C171.439 190.731 170.555 190.237 169.879 189.353C169.203 188.469 168.917 187.507 169.021 186.467L170.269 175.391C170.373 174.351 170.867 173.493 171.751 172.817C172.635 172.089 173.623 171.803 174.715 171.959L194.137 174.143C195.229 174.247 196.113 174.741 196.789 175.625C197.465 176.509 197.751 177.471 197.647 178.511L196.399 189.587C196.295 190.627 195.801 191.511 194.917 192.239C194.033 192.915 193.045 193.175 191.953 193.019L172.531 190.835Z" fill="white"/>
<path d="M248.326 141.471C247.338 141.419 246.532 140.977 245.908 140.145C245.336 139.261 245.102 138.273 245.206 137.181L250.51 90.9272C250.614 89.8872 251.056 89.0292 251.836 88.3532C252.616 87.6252 253.5 87.3132 254.488 87.4172L266.656 88.8212C267.956 88.9772 268.892 89.7052 269.464 91.0052L274.768 105.903L283.27 92.5652C284.154 91.4212 285.246 90.9272 286.546 91.0832L298.792 92.4872C299.728 92.5392 300.482 93.0072 301.054 93.8912C301.678 94.7232 301.938 95.6852 301.834 96.7772L296.53 143.031C296.426 144.071 295.984 144.955 295.204 145.683C294.424 146.359 293.566 146.645 292.63 146.541L281.086 145.215C280.15 145.111 279.37 144.643 278.746 143.811C278.122 142.979 277.862 142.043 277.966 141.003L278.044 140.847L280.306 126.027L274.534 134.139C274.17 134.659 273.676 135.049 273.052 135.309C272.48 135.517 271.856 135.595 271.18 135.543C270.608 135.439 270.062 135.205 269.542 134.841C269.022 134.477 268.658 134.009 268.45 133.437L264.706 124.389L263.614 139.209C263.51 140.301 263.042 141.211 262.21 141.939C261.43 142.615 260.546 142.901 259.558 142.797L248.326 141.471Z" fill="white"/>
<path d="M215.679 135.801C211.051 134.761 207.099 132.629 203.823 129.405C200.547 126.181 198.285 122.307 197.037 117.783C195.737 113.207 195.659 108.475 196.803 103.587V103.431C197.947 98.4912 200.105 94.2532 203.277 90.7172C206.449 87.1812 210.219 84.6852 214.587 83.2292C219.007 81.7212 223.531 81.5132 228.159 82.6052C232.787 83.6452 236.739 85.7772 240.015 89.0012C243.291 92.2252 245.553 96.1252 246.801 100.701C248.101 105.225 248.179 109.931 247.035 114.819V114.975C245.891 119.915 243.733 124.153 240.561 127.689C237.389 131.225 233.593 133.721 229.173 135.177C224.805 136.685 220.307 136.893 215.679 135.801ZM220.281 116.613C222.257 117.081 223.999 116.587 225.507 115.131C227.067 113.675 228.107 111.829 228.627 109.593C229.095 107.669 228.861 106.005 227.925 104.601C227.041 103.197 225.637 102.287 223.713 101.871L223.479 101.793C221.451 101.325 219.735 101.611 218.331 102.651C216.927 103.639 216.043 104.965 215.679 106.629C215.211 108.657 215.341 110.711 216.069 112.791C216.849 114.871 218.253 116.145 220.281 116.613Z" fill="white"/>
<path d="M169.679 149.801C165.051 148.761 161.099 146.629 157.823 143.405C154.547 140.181 152.285 136.307 151.037 131.783C149.737 127.207 149.659 122.475 150.803 117.587V117.431C151.947 112.491 154.105 108.253 157.277 104.717C160.449 101.181 164.219 98.6852 168.587 97.2292C173.007 95.7212 177.531 95.5132 182.159 96.6052C186.787 97.6452 190.739 99.7772 194.015 103.001C197.291 106.225 199.553 110.125 200.801 114.701C202.101 119.225 202.179 123.931 201.035 128.819V128.975C199.891 133.915 197.733 138.153 194.561 141.689C191.389 145.225 187.593 147.721 183.173 149.177C178.805 150.685 174.307 150.893 169.679 149.801ZM174.281 130.613C176.257 131.081 177.999 130.587 179.507 129.131C181.067 127.675 182.107 125.829 182.627 123.593C183.095 121.669 182.861 120.005 181.925 118.601C181.041 117.197 179.637 116.287 177.713 115.871L177.479 115.793C175.451 115.325 173.735 115.611 172.331 116.651C170.927 117.639 170.043 118.965 169.679 120.629C169.211 122.657 169.341 124.711 170.069 126.791C170.849 128.871 172.253 130.145 174.281 130.613Z" fill="white"/>
<path d="M116.092 140.069C115.104 139.965 114.298 139.497 113.674 138.665C113.102 137.781 112.894 136.793 113.05 135.701L118.276 89.5247C118.38 88.4327 118.822 87.5487 119.602 86.8727C120.434 86.1447 121.344 85.8327 122.332 85.9367L133.798 87.2627C134.786 87.3667 135.566 87.8607 136.138 88.7447C136.762 89.5767 136.996 90.5387 136.84 91.6307L133.33 122.675L150.022 124.625C151.01 124.677 151.79 125.145 152.362 126.029C152.934 126.861 153.168 127.797 153.064 128.837L151.738 140.069C151.634 141.161 151.192 142.045 150.412 142.721C149.684 143.449 148.826 143.761 147.838 143.657L116.092 140.069Z" fill="white"/>
<path d="M69.144 141.069C68.156 140.965 67.35 140.497 66.726 139.665C66.154 138.781 65.92 137.793 66.024 136.701L71.328 90.5247C71.432 89.4327 71.874 88.5487 72.654 87.8727C73.434 87.1447 74.318 86.8327 75.306 86.9367L96.6 89.3547C102.684 90.0307 107.104 92.3187 109.86 96.2187C112.044 99.2867 112.902 102.901 112.434 107.061C111.966 110.857 110.51 113.977 108.066 116.421C111.186 119.749 112.434 123.961 111.81 129.057C111.238 134.205 109.028 138.079 105.18 140.679C101.384 143.227 96.522 144.163 90.594 143.487L69.144 141.069ZM89.892 130.851C92.492 131.111 94.312 130.799 95.352 129.915C96.444 129.031 97.068 127.913 97.224 126.561C97.64 123.441 95.534 121.595 90.906 121.023L85.68 120.477C84.744 120.373 83.912 120.607 83.184 121.179C82.456 121.751 82.04 122.505 81.936 123.441L81.624 126.483C81.52 127.419 81.754 128.251 82.326 128.979C82.898 129.707 83.652 130.123 84.588 130.227L89.892 130.851ZM90.984 111.039C92.96 111.299 94.494 111.013 95.586 110.181C96.678 109.297 97.302 108.153 97.458 106.749C97.562 105.605 97.276 104.461 96.6 103.317C95.924 102.173 94.39 101.471 91.998 101.211L88.254 100.743C87.318 100.639 86.46 100.873 85.68 101.445C84.952 102.017 84.562 102.771 84.51 103.707L84.12 106.827C84.016 107.763 84.25 108.621 84.822 109.401C85.394 110.129 86.148 110.545 87.084 110.649L90.984 111.039Z" fill="white"/>
</g>
<path d="M277.496 17.3967C276.076 14.508 273.784 11.9057 271.337 10.5987L268.559 9.1148L268.783 12.2585C268.981 15.0275 270.423 18.1824 272.483 20.6555C269.639 19.1527 266.257 18.3955 263.511 18.7777L260.394 19.2114L262.421 21.6239C264.206 23.7488 267.225 25.4534 270.342 26.2436C267.16 26.7008 263.981 28.078 261.985 30.0033L259.719 32.1889L262.774 32.9488C265.465 33.6181 268.907 33.2213 271.891 32.0264C269.587 34.2691 267.825 37.2547 267.341 39.9877L266.792 43.0905L269.709 41.9075C272.278 40.8654 274.828 38.5188 276.539 35.7954C275.993 38.9667 276.321 42.4204 277.534 44.9172L278.911 47.7518L280.575 45.0779C282.041 42.7225 282.725 39.3225 282.511 36.1108C283.93 38.9995 286.223 41.602 288.67 42.9089L291.448 44.3927L291.224 41.2491C291.026 38.4801 289.583 35.3252 287.524 32.8521C290.368 34.3548 293.75 35.112 296.496 34.7299L299.613 34.2962L297.586 31.8837C295.801 29.7588 292.782 28.0541 289.665 27.2641C292.847 26.8069 296.026 25.4296 298.022 23.5044L300.288 21.3187L297.233 20.559C294.541 19.8896 291.099 20.2865 288.115 21.4813C290.42 19.2386 292.182 16.253 292.666 13.52L293.215 10.4175L290.298 11.6004C287.729 12.6425 285.179 14.9891 283.467 17.7124C284.014 14.541 283.686 11.0875 282.473 8.59057L281.095 5.75604L279.431 8.42993C277.966 10.7851 277.281 14.1852 277.496 17.3967Z" fill="url(#paint2_linear_40_141)" fill-opacity="0.87"/>
</g>
<defs>
<filter id="filter0_f_40_141" x="34.9" y="50.8172" width="32.2" height="32.2" filterUnits="userSpaceOnUse" color-interpolation-filters="sRGB">
<feFlood flood-opacity="0" result="BackgroundImageFix"/>
<feBlend mode="normal" in="SourceGraphic" in2="BackgroundImageFix" result="shape"/>
<feGaussianBlur stdDeviation="4.55" result="effect1_foregroundBlur_40_141"/>
</filter>
<filter id="filter1_f_40_141" x="363.9" y="112.817" width="38.2" height="38.2" filterUnits="userSpaceOnUse" color-interpolation-filters="sRGB">
<feFlood flood-opacity="0" result="BackgroundImageFix"/>
<feBlend mode="normal" in="SourceGraphic" in2="BackgroundImageFix" result="shape"/>
<feGaussianBlur stdDeviation="4.55" result="effect1_foregroundBlur_40_141"/>
</filter>
<filter id="filter2_f_40_141" x="350.9" y="147.817" width="26.2" height="26.2" filterUnits="userSpaceOnUse" color-interpolation-filters="sRGB">
<feFlood flood-opacity="0" result="BackgroundImageFix"/>
<feBlend mode="normal" in="SourceGraphic" in2="BackgroundImageFix" result="shape"/>
<feGaussianBlur stdDeviation="4.55" result="effect1_foregroundBlur_40_141"/>
</filter>
<filter id="filter3_d_40_141" x="61.6" y="77.5172" width="273.792" height="139.418" filterUnits="userSpaceOnUse" color-interpolation-filters="sRGB">
<feFlood flood-opacity="0" result="BackgroundImageFix"/>
<feColorMatrix in="SourceAlpha" type="matrix" values="0 0 0 0 0 0 0 0 0 0 0 0 0 0 0 0 0 0 127 0" result="hardAlpha"/>
<feOffset dx="3" dy="3"/>
<feGaussianBlur stdDeviation="3.7"/>
<feComposite in2="hardAlpha" operator="out"/>
<feColorMatrix type="matrix" values="0 0 0 0 0.173357 0 0 0 0 0.0113154 0 0 0 0 0.523024 0 0 0 0.54 0"/>
<feBlend mode="normal" in2="BackgroundImageFix" result="effect1_dropShadow_40_141"/>
<feBlend mode="normal" in="SourceGraphic" in2="effect1_dropShadow_40_141" result="shape"/>
</filter>
<linearGradient id="paint0_linear_40_141" x1="80.0225" y1="68.5927" x2="90.8492" y2="47.9582" gradientUnits="userSpaceOnUse">
<stop stop-color="#FFD9A0"/>
<stop offset="1" stop-color="#FFF5F1"/>
</linearGradient>
<linearGradient id="paint1_linear_40_141" x1="99.8778" y1="190.649" x2="87.3708" y2="227.603" gradientUnits="userSpaceOnUse">
<stop stop-color="#B0B9FF"/>
<stop offset="1" stop-color="#E7E9FF"/>
</linearGradient>
<linearGradient id="paint2_linear_40_141" x1="259.719" y1="32.1889" x2="300.288" y2="21.3185" gradientUnits="userSpaceOnUse">
<stop stop-color="#FFC9AE"/>
<stop offset="1" stop-color="#F8FBFE"/>
</linearGradient>
<clipPath id="clip0_40_141">
<rect width="390" height="241" fill="white"/>
</clipPath>
<clipPath id="clip1_40_141">
<rect width="23.6166" height="23.6166" fill="white" transform="matrix(0.983833 -0.17909 -0.17909 -0.983833 77.2295 71.3815)"/>
</clipPath>
<clipPath id="clip2_40_141">
<rect width="38" height="38" fill="white" transform="translate(69 203.973) rotate(-23.341)"/>
</clipPath>
</defs>
</svg>
