<svg width="325" height="165" viewBox="0 0 325 165" fill="none" xmlns="http://www.w3.org/2000/svg">
<g filter="url(#filter0_d_672_10286)">
<path d="M289.689 150.71C283.733 151.393 278.211 150.586 273.123 148.291C268.036 145.995 263.848 142.459 260.56 137.681C257.334 132.904 255.348 127.32 254.604 120.93C253.921 114.664 254.635 108.832 256.744 103.434C258.854 98.0366 262.08 93.6316 266.423 90.2193C270.828 86.7449 275.946 84.6665 281.778 83.984C286.307 83.4877 290.526 83.7669 294.435 84.8216C298.344 85.8763 302.128 87.7996 305.789 90.5915C306.719 91.274 307.309 92.4218 307.557 94.0348C307.681 95.2757 307.495 96.2994 306.998 97.1059L301.601 106.133L306.347 105.575C307.526 105.451 308.58 105.823 309.511 106.691C310.442 107.498 310.969 108.522 311.093 109.763L313.978 134.61C314.102 136.161 313.699 137.402 312.768 138.333C310.225 141.373 307.029 144.041 303.183 146.336C299.336 148.632 294.838 150.09 289.689 150.71ZM287.641 129.585C288.82 129.461 289.782 128.965 290.526 128.096C291.333 127.165 291.736 126.08 291.736 124.839L287.92 125.304C286.618 125.428 285.439 125.149 284.384 124.466C283.391 123.784 282.833 122.853 282.709 121.675L281.778 113.392C281.654 112.275 281.995 111.252 282.802 110.321C283.609 109.328 284.663 108.77 285.966 108.646L295.459 107.529C295.521 107.281 295.552 107.033 295.552 106.784C295.428 105.73 294.497 104.954 292.76 104.458C291.023 103.9 288.882 103.744 286.338 103.993C284.167 104.241 282.213 105.078 280.475 106.505C278.738 107.87 277.435 109.669 276.567 111.903C275.76 114.074 275.481 116.37 275.729 118.79C276.039 122.016 277.311 124.684 279.545 126.793C281.778 128.903 284.477 129.833 287.641 129.585Z" fill="white"/>
<path d="M204.608 153.659C203.429 153.784 202.374 153.442 201.444 152.636C200.513 151.829 199.986 150.775 199.862 149.472L193.533 94.3783C193.409 93.0754 193.688 91.9276 194.371 90.9349C195.115 89.8802 196.077 89.2908 197.256 89.1667L210.005 87.6777C211.494 87.5536 212.673 88.0189 213.542 89.0737L229.549 107.872L226.85 90.5627C226.726 89.2598 227.005 88.112 227.687 87.1193C228.37 86.0646 229.301 85.4752 230.479 85.3511L244.16 83.7691C245.338 83.645 246.362 84.0172 247.231 84.8858C248.161 85.6924 248.689 86.7471 248.813 88.05L255.141 143.143C255.265 144.446 254.986 145.625 254.303 146.68C253.621 147.672 252.69 148.231 251.512 148.355L239.413 149.751C238.731 149.813 238.079 149.72 237.459 149.472C236.839 149.223 236.311 148.851 235.877 148.355L219.033 128.532L221.824 146.959C221.949 148.262 221.669 149.41 220.987 150.402C220.304 151.457 219.374 152.046 218.195 152.17L204.608 153.659Z" fill="white"/>
<path d="M177.166 151.039C175.987 151.163 174.933 150.821 174.002 150.015C173.071 149.208 172.544 148.154 172.42 146.851L166.092 91.7573C165.967 90.4544 166.247 89.3067 166.929 88.314C167.674 87.2593 168.635 86.6699 169.814 86.5458L183.587 84.9637C184.766 84.8396 185.821 85.1809 186.752 85.9874C187.682 86.794 188.21 87.8487 188.334 89.1516L194.662 144.245C194.786 145.548 194.476 146.696 193.731 147.688C193.049 148.743 192.118 149.332 190.939 149.456L177.166 151.039Z" fill="white"/>
<path d="M132.096 134.951C130.793 134.827 129.738 134.238 128.932 133.183C128.125 132.128 127.784 130.98 127.908 129.74L129.397 116.525C129.521 115.284 130.11 114.26 131.165 113.454C132.22 112.585 133.399 112.244 134.702 112.43L157.874 115.036C159.177 115.16 160.232 115.749 161.038 116.804C161.845 117.859 162.186 119.006 162.062 120.247L160.573 133.462C160.449 134.703 159.86 135.758 158.805 136.626C157.75 137.433 156.571 137.743 155.269 137.557L132.096 134.951Z" fill="white"/>
<path d="M222.529 76.0549C221.35 75.9929 220.388 75.4655 219.644 74.4729C218.961 73.4182 218.682 72.2394 218.806 70.9365L225.134 15.75C225.258 14.5092 225.786 13.4855 226.716 12.6789C227.647 11.8103 228.702 11.4381 229.881 11.5622L244.398 13.2373C245.949 13.4234 247.066 14.292 247.749 15.8431L254.077 33.6181L264.221 17.7043C265.276 16.3394 266.578 15.75 268.129 15.9361L282.74 17.6113C283.857 17.6733 284.757 18.2317 285.439 19.2864C286.184 20.2791 286.494 21.4269 286.37 22.7298L280.042 77.9162C279.917 79.157 279.39 80.2118 278.459 81.0804C277.529 81.8869 276.505 82.2281 275.388 82.104L261.615 80.522C260.498 80.3979 259.568 79.8395 258.823 78.8468C258.079 77.8542 257.768 76.7374 257.893 75.4966L257.986 75.3104L260.684 57.6284L253.798 67.307C253.363 67.9274 252.774 68.3927 252.03 68.703C251.347 68.9511 250.603 69.0442 249.796 68.9821C249.114 68.8581 248.462 68.5789 247.842 68.1446C247.221 67.7103 246.787 67.1519 246.539 66.4694L242.072 55.6741L240.769 73.3561C240.645 74.659 240.086 75.7447 239.094 76.6133C238.163 77.4199 237.108 77.7611 235.93 77.637L222.529 76.0549Z" fill="white"/>
<path d="M183.577 69.2899C178.055 68.049 173.34 65.5053 169.431 61.6587C165.523 57.8121 162.824 53.19 161.335 47.7923C159.784 42.3326 159.691 36.6868 161.056 30.8548V30.6687C162.421 24.7747 164.995 19.7182 168.78 15.4994C172.565 11.2805 177.063 8.3025 182.274 6.56532C187.548 4.7661 192.945 4.51793 198.467 5.82082C203.989 7.06166 208.704 9.60538 212.613 13.452C216.521 17.2986 219.22 21.9518 220.709 27.4115C222.26 32.8091 222.353 38.4239 220.988 44.2559V44.442C219.623 50.336 217.049 55.3925 213.264 59.6113C209.48 63.8302 204.95 66.8082 199.677 68.5454C194.465 70.3446 189.099 70.5928 183.577 69.2899ZM189.068 46.3964C191.425 46.9547 193.504 46.3653 195.303 44.6281C197.164 42.891 198.405 40.6885 199.025 38.0207C199.584 35.7251 199.305 33.7398 198.188 32.0646C197.133 30.3895 195.458 29.3038 193.162 28.8074L192.883 28.7144C190.464 28.156 188.416 28.4972 186.741 29.738C185.066 30.9168 184.011 32.4989 183.577 34.4843C183.019 36.9039 183.174 39.3546 184.042 41.8363C184.973 44.3179 186.648 45.838 189.068 46.3964Z" fill="white"/>
<path d="M128.694 85.9936C123.172 84.7527 118.457 82.209 114.548 78.3624C110.639 74.5158 107.94 69.8936 106.451 64.496C104.9 59.0363 104.807 53.3904 106.172 47.5585V47.3724C107.537 41.4784 110.112 36.4219 113.897 32.2031C117.681 27.9842 122.179 25.0062 127.391 23.269C132.664 21.4698 138.062 21.2216 143.584 22.5245C149.105 23.7653 153.821 26.3091 157.729 30.1557C161.638 34.0023 164.337 38.6554 165.826 44.1151C167.377 49.5128 167.47 55.1276 166.105 60.9596V61.1457C164.74 67.0397 162.165 72.0961 158.381 76.315C154.596 80.5339 150.067 83.5119 144.793 85.2491C139.582 87.0483 134.215 87.2964 128.694 85.9936ZM134.184 63.1C136.542 63.6584 138.62 63.069 140.42 61.3318C142.281 59.5946 143.522 57.3922 144.142 54.7243C144.7 52.4288 144.421 50.4434 143.304 48.7683C142.25 47.0932 140.575 46.0074 138.279 45.5111L138 45.418C135.58 44.8596 133.533 45.2009 131.858 46.4417C130.183 47.6205 129.128 49.2026 128.694 51.1879C128.135 53.6076 128.29 56.0582 129.159 58.5399C130.09 61.0216 131.765 62.5416 134.184 63.1Z" fill="white"/>
<path d="M64.7579 74.3816C63.5791 74.2575 62.6174 73.6991 61.8729 72.7064C61.1905 71.6517 60.9423 70.4729 61.1284 69.17L67.3636 14.0766C67.4877 12.7737 68.0151 11.719 68.9457 10.9125C69.9384 10.0439 71.0241 9.67164 72.2029 9.79573L85.8832 11.3778C87.062 11.5019 87.9926 12.0913 88.6751 13.146C89.4196 14.1387 89.6988 15.2865 89.5127 16.5893L85.3248 53.6285L105.24 55.955C106.419 56.0171 107.35 56.5755 108.032 57.6302C108.715 58.6229 108.994 59.7396 108.87 60.9805L107.288 74.3816C107.164 75.6844 106.636 76.7392 105.706 77.5457C104.837 78.4143 103.813 78.7865 102.635 78.6625L64.7579 74.3816Z" fill="white"/>
<path d="M8.74324 75.5747C7.56444 75.4506 6.60279 74.8922 5.85828 73.8995C5.17582 72.8448 4.89663 71.666 5.02072 70.3631L11.349 15.2697C11.4731 13.9669 12.0005 12.9121 12.9311 12.1056C13.8617 11.237 14.9164 10.8648 16.0952 10.9888L41.5015 13.8738C48.7604 14.6803 54.034 17.4102 57.3222 22.0634C59.928 25.7238 60.9517 30.0358 60.3933 34.9991C59.8349 39.5282 58.0977 43.2507 55.1818 46.1667C58.9043 50.1374 60.3933 55.1628 59.6488 61.2429C58.9663 67.3851 56.3295 72.0072 51.7384 75.1094C47.2093 78.1494 41.4084 79.2662 34.3356 78.4596L8.74324 75.5747ZM33.498 63.3834C36.6001 63.6936 38.7716 63.3214 40.0125 62.2666C41.3153 61.2119 42.0598 59.878 42.246 58.2649C42.7423 54.5424 40.2296 52.3399 34.7079 51.6574L28.4726 51.006C27.3559 50.8819 26.3632 51.1611 25.4946 51.8436C24.626 52.526 24.1297 53.4256 24.0056 54.5424L23.6333 58.1719C23.5093 59.2886 23.7885 60.2813 24.4709 61.1499C25.1534 62.0185 26.053 62.5148 27.1697 62.6389L33.498 63.3834ZM34.8009 39.7454C37.1585 40.0556 38.9888 39.7143 40.2916 38.7217C41.5945 37.6669 42.339 36.302 42.5252 34.6269C42.6493 33.262 42.308 31.897 41.5015 30.5321C40.6949 29.1672 38.8647 28.3296 36.0107 28.0194L31.5437 27.461C30.427 27.3369 29.4033 27.6161 28.4726 28.2986C27.604 28.981 27.1387 29.8807 27.0767 30.9974L26.6114 34.7199C26.4873 35.8367 26.7665 36.8604 27.4489 37.791C28.1314 38.6596 29.031 39.156 30.1478 39.28L34.8009 39.7454Z" fill="white"/>
</g>
<defs>
<filter id="filter0_d_672_10286" x="0.592081" y="0.6" width="323.808" height="163.484" filterUnits="userSpaceOnUse" color-interpolation-filters="sRGB">
<feFlood flood-opacity="0" result="BackgroundImageFix"/>
<feColorMatrix in="SourceAlpha" type="matrix" values="0 0 0 0 0 0 0 0 0 0 0 0 0 0 0 0 0 0 127 0" result="hardAlpha"/>
<feOffset dx="3" dy="3"/>
<feGaussianBlur stdDeviation="3.7"/>
<feComposite in2="hardAlpha" operator="out"/>
<feColorMatrix type="matrix" values="0 0 0 0 0.173357 0 0 0 0 0.0113154 0 0 0 0 0.523024 0 0 0 0.54 0"/>
<feBlend mode="normal" in2="BackgroundImageFix" result="effect1_dropShadow_672_10286"/>
<feBlend mode="normal" in="SourceGraphic" in2="effect1_dropShadow_672_10286" result="shape"/>
</filter>
</defs>
</svg>
