<svg width="390" height="403" viewBox="0 0 390 403" fill="none" xmlns="http://www.w3.org/2000/svg">
<g clip-path="url(#clip0_64_1309)">
<path d="M134.876 287.7H128.184V286.076L128.576 285.768C129.715 284.853 130.709 283.957 131.558 283.08C132.417 282.203 132.846 281.395 132.846 280.658C132.846 280.042 132.734 279.603 132.51 279.342C132.295 279.071 131.941 278.936 131.446 278.936C131.063 278.936 130.774 279.001 130.578 279.132C130.382 279.253 130.228 279.44 130.116 279.692C130.013 279.935 129.887 280.331 129.738 280.882L128.114 280.49C128.282 279.855 128.464 279.333 128.66 278.922C128.865 278.502 129.187 278.143 129.626 277.844C130.074 277.545 130.681 277.396 131.446 277.396C132.417 277.396 133.173 277.681 133.714 278.25C134.255 278.819 134.526 279.622 134.526 280.658C134.526 282.189 133.229 284.023 130.634 286.16H134.876V287.7ZM139.734 286.314C140.938 286.314 141.54 285.082 141.54 282.618V282.52L138.11 284.424C138.353 285.684 138.894 286.314 139.734 286.314ZM139.734 287.854C138.586 287.854 137.723 287.397 137.144 286.482C136.566 285.558 136.276 284.27 136.276 282.618C136.276 280.975 136.566 279.697 137.144 278.782C137.723 277.867 138.586 277.41 139.734 277.41C140.882 277.41 141.75 277.867 142.338 278.782C142.926 279.697 143.22 280.975 143.22 282.618C143.22 284.27 142.926 285.558 142.338 286.482C141.76 287.397 140.892 287.854 139.734 287.854ZM141.386 280.812C141.144 279.571 140.593 278.95 139.734 278.95C139.165 278.95 138.726 279.249 138.418 279.846C138.11 280.443 137.956 281.367 137.956 282.618V282.716L141.386 280.812ZM151.378 287.7H144.686V286.076L145.078 285.768C146.217 284.853 147.211 283.957 148.06 283.08C148.919 282.203 149.348 281.395 149.348 280.658C149.348 280.042 149.236 279.603 149.012 279.342C148.797 279.071 148.443 278.936 147.948 278.936C147.565 278.936 147.276 279.001 147.08 279.132C146.884 279.253 146.73 279.44 146.618 279.692C146.515 279.935 146.389 280.331 146.24 280.882L144.616 280.49C144.784 279.855 144.966 279.333 145.162 278.922C145.367 278.502 145.689 278.143 146.128 277.844C146.576 277.545 147.183 277.396 147.948 277.396C148.919 277.396 149.675 277.681 150.216 278.25C150.757 278.819 151.028 279.622 151.028 280.658C151.028 282.189 149.731 284.023 147.136 286.16H151.378V287.7ZM159.092 279.02H154.934V281.19C155.429 281.031 155.891 280.952 156.32 280.952C156.908 280.952 157.468 281.073 158 281.316C158.532 281.549 158.966 281.918 159.302 282.422C159.647 282.917 159.82 283.533 159.82 284.27C159.82 284.914 159.671 285.507 159.372 286.048C159.073 286.58 158.644 287.005 158.084 287.322C157.533 287.639 156.899 287.798 156.18 287.798C155.564 287.798 155.032 287.7 154.584 287.504C154.145 287.317 153.805 287.117 153.562 286.902C153.329 286.687 153.067 286.412 152.778 286.076L154.038 285.068C154.309 285.376 154.519 285.6 154.668 285.74C154.827 285.88 155.027 286.001 155.27 286.104C155.522 286.207 155.825 286.258 156.18 286.258C156.787 286.258 157.263 286.076 157.608 285.712C157.963 285.339 158.14 284.858 158.14 284.27C158.14 283.663 157.972 283.215 157.636 282.926C157.309 282.637 156.875 282.492 156.334 282.492C156.073 282.492 155.835 282.529 155.62 282.604C155.405 282.669 155.158 282.772 154.878 282.912C154.691 283.005 154.533 283.075 154.402 283.122C154.281 283.169 154.159 283.192 154.038 283.192C153.767 283.192 153.506 283.052 153.254 282.772V277.48H159.092V279.02ZM173.984 276.36V288.568H172.304V281.274H170.372V279.594H172.304V276.36H173.984ZM168.538 287.112C168.79 286.767 169.024 286.337 169.238 285.824C169.453 285.301 169.56 284.816 169.56 284.368C169.56 283.799 169.364 283.383 168.972 283.122C168.87 284.083 168.585 284.867 168.118 285.474C167.652 286.071 166.956 286.403 166.032 286.468C165.556 286.496 165.141 286.412 164.786 286.216C164.441 286.02 164.175 285.749 163.988 285.404C163.802 285.059 163.708 284.681 163.708 284.27C163.708 283.831 163.816 283.407 164.03 282.996C164.245 282.585 164.572 282.235 165.01 281.946C165.458 281.647 166.004 281.451 166.648 281.358L167.334 281.288V276.724H169.014V281.386C169.789 281.563 170.344 281.913 170.68 282.436C171.016 282.949 171.184 283.565 171.184 284.284C171.184 284.779 171.119 285.278 170.988 285.782C170.858 286.277 170.694 286.72 170.498 287.112H168.538ZM165.92 284.928C166.368 284.9 166.7 284.713 166.914 284.368C167.138 284.023 167.274 283.509 167.32 282.828L166.872 282.87C166.378 282.945 166.004 283.122 165.752 283.402C165.51 283.673 165.388 283.967 165.388 284.284C165.388 284.48 165.435 284.639 165.528 284.76C165.631 284.881 165.762 284.937 165.92 284.928ZM178.21 286.51C178.21 286.743 178.322 286.944 178.546 287.112C178.77 287.28 179.106 287.401 179.554 287.476C180.17 287.56 180.684 287.602 181.094 287.602C181.524 287.602 182.037 287.56 182.634 287.476C183.082 287.401 183.418 287.28 183.642 287.112C183.866 286.944 183.978 286.743 183.978 286.51V286.398C183.978 286.137 183.866 285.917 183.642 285.74C183.428 285.553 183.138 285.46 182.774 285.46H179.414C179.05 285.46 178.756 285.553 178.532 285.74C178.318 285.917 178.21 286.137 178.21 286.398V286.51ZM176.53 286.398C176.53 285.95 176.652 285.539 176.894 285.166C177.146 284.783 177.492 284.48 177.93 284.256C178.369 284.032 178.864 283.92 179.414 283.92H182.774C183.325 283.92 183.82 284.032 184.258 284.256C184.697 284.48 185.038 284.783 185.28 285.166C185.532 285.539 185.658 285.95 185.658 286.398V286.51C185.658 287.173 185.402 287.719 184.888 288.148C184.375 288.587 183.717 288.867 182.914 288.988C182.261 289.081 181.654 289.128 181.094 289.128C180.544 289.128 179.937 289.081 179.274 288.988C178.472 288.867 177.814 288.587 177.3 288.148C176.787 287.719 176.53 287.173 176.53 286.51V286.398ZM185.462 276.36V283.668H183.782V282.114H181.85V280.574C181.449 281.405 180.744 282.072 179.736 282.576C178.738 283.08 177.366 283.435 175.62 283.64L175.424 282.1C176.712 281.951 177.73 281.731 178.476 281.442C179.223 281.143 179.755 280.77 180.072 280.322C180.399 279.874 180.576 279.314 180.604 278.642C180.595 278.483 180.567 278.381 180.52 278.334C180.483 278.287 180.394 278.264 180.254 278.264H175.9V276.724H180.254C180.665 276.724 181.034 276.813 181.36 276.99C181.687 277.167 181.93 277.429 182.088 277.774H183.782V276.36H185.462ZM183.782 280.434V279.454H182.2C182.144 279.781 182.051 280.107 181.92 280.434H183.782ZM198.62 276.36V288.568H196.94V282.744H196.1V287.868H194.42V276.5H196.1V281.064H196.94V276.36H198.62ZM194.014 286.02C192.875 286.589 191.923 286.874 191.158 286.874C189.805 286.874 188.862 286.071 188.33 284.466C188.125 283.85 188.022 283.117 188.022 282.268C188.022 281.157 188.204 279.823 188.568 278.264H187.924V276.724H193.426V278.264H190.304C189.903 279.888 189.702 281.241 189.702 282.324C189.702 282.996 189.777 283.542 189.926 283.962C190.094 284.457 190.285 284.811 190.5 285.026C190.724 285.241 190.995 285.348 191.312 285.348C191.611 285.348 191.956 285.264 192.348 285.096C192.749 284.919 193.305 284.634 194.014 284.242V286.02ZM208.202 289.1V286.79C208.202 286.015 207.394 285.628 205.78 285.628C204.65 285.628 203.138 285.81 201.244 286.174L200.936 284.662C202.877 284.298 204.45 284.116 205.654 284.116C208.472 284.116 209.882 285.007 209.882 286.79V289.1H208.202ZM209.826 276.36V279.244H211.17V280.924H209.826V283.668H208.146V276.36H209.826ZM204.156 275.884C204.156 276.099 204.17 276.285 204.198 276.444C204.226 276.593 204.291 276.757 204.394 276.934H207.166V278.474H199.872V276.934H202.56C202.504 276.654 202.476 276.304 202.476 275.884H204.156ZM203.526 282.016C204.058 282.016 204.431 281.946 204.646 281.806C204.87 281.666 204.982 281.47 204.982 281.218C204.982 280.957 204.87 280.761 204.646 280.63C204.431 280.49 204.058 280.42 203.526 280.42C202.994 280.42 202.616 280.49 202.392 280.63C202.177 280.761 202.07 280.957 202.07 281.218C202.07 281.47 202.177 281.666 202.392 281.806C202.616 281.946 202.994 282.016 203.526 282.016ZM203.526 283.556C202.835 283.556 202.252 283.453 201.776 283.248C201.309 283.033 200.959 282.753 200.726 282.408C200.502 282.053 200.39 281.657 200.39 281.218C200.39 280.779 200.502 280.387 200.726 280.042C200.959 279.687 201.309 279.407 201.776 279.202C202.252 278.987 202.835 278.88 203.526 278.88C204.216 278.88 204.795 278.987 205.262 279.202C205.738 279.407 206.088 279.687 206.312 280.042C206.545 280.387 206.662 280.779 206.662 281.218C206.662 281.657 206.545 282.053 206.312 282.408C206.088 282.753 205.738 283.033 205.262 283.248C204.795 283.453 204.216 283.556 203.526 283.556ZM220.386 284.284V279.314C220.386 278.539 219.551 278.152 217.88 278.152C216.704 278.152 215.174 278.334 213.288 278.698L212.98 277.186C214.94 276.822 216.532 276.64 217.754 276.64C220.629 276.64 222.066 277.531 222.066 279.314V284.284H220.386ZM223.186 287.714H211.818V286.174H214.156V281.218H215.836V286.174H217.096V281.218H218.776V286.174H223.186V287.714ZM238.118 276.36V288.568H236.438V282.744H235.598V287.868H233.918V276.5H235.598V281.064H236.438V276.36H238.118ZM233.512 286.02C232.373 286.589 231.421 286.874 230.656 286.874C229.303 286.874 228.36 286.071 227.828 284.466C227.623 283.85 227.52 283.117 227.52 282.268C227.52 281.157 227.702 279.823 228.066 278.264H227.422V276.724H232.924V278.264H229.802C229.401 279.888 229.2 281.241 229.2 282.324C229.2 282.996 229.275 283.542 229.424 283.962C229.592 284.457 229.783 284.811 229.998 285.026C230.222 285.241 230.493 285.348 230.81 285.348C231.109 285.348 231.454 285.264 231.846 285.096C232.247 284.919 232.803 284.634 233.512 284.242V286.02ZM242.072 286.566C242.072 286.79 242.179 286.981 242.394 287.14C242.618 287.299 242.954 287.411 243.402 287.476C244.018 287.56 244.536 287.602 244.956 287.602C245.376 287.602 245.894 287.56 246.51 287.476C246.958 287.411 247.289 287.299 247.504 287.14C247.728 286.981 247.84 286.79 247.84 286.566V286.468C247.84 286.216 247.728 286.006 247.504 285.838C247.289 285.661 247 285.572 246.636 285.572H243.276C242.912 285.572 242.618 285.661 242.394 285.838C242.179 286.006 242.072 286.216 242.072 286.468V286.566ZM240.392 286.468C240.392 286.029 240.513 285.623 240.756 285.25C241.008 284.877 241.353 284.583 241.792 284.368C242.23 284.144 242.725 284.032 243.276 284.032H246.636C247.186 284.032 247.681 284.144 248.12 284.368C248.558 284.583 248.899 284.877 249.142 285.25C249.394 285.623 249.52 286.029 249.52 286.468V286.566C249.52 287.182 249.277 287.709 248.792 288.148C248.306 288.587 247.63 288.867 246.762 288.988C246.108 289.081 245.506 289.128 244.956 289.128C244.405 289.128 243.803 289.081 243.15 288.988C242.282 288.867 241.605 288.587 241.12 288.148C240.634 287.709 240.392 287.182 240.392 286.566V286.468ZM249.464 280.658C248.95 280.798 248.367 280.919 247.714 281.022C247.06 281.115 246.398 281.176 245.726 281.204V281.834H250.64V283.374H239.272V281.834H244.186V281.19C243.514 281.153 242.926 281.064 242.422 280.924C241.927 280.775 241.558 280.574 241.316 280.322C241.082 280.07 240.914 279.813 240.812 279.552C240.709 279.291 240.658 278.997 240.658 278.67C240.658 278.474 240.681 278.222 240.728 277.914H240.168V276.374H249.464V277.914H242.436C242.37 278.185 242.338 278.427 242.338 278.642C242.338 278.894 242.408 279.099 242.548 279.258C242.678 279.398 242.949 279.505 243.36 279.58C243.78 279.645 244.284 279.678 244.872 279.678C245.665 279.678 246.486 279.622 247.336 279.51C248.194 279.389 248.904 279.23 249.464 279.034V280.658ZM262.768 276.36V288.568H261.088V276.36H262.768ZM260.248 276.5V287.868H258.568V282.184H257.56V280.504H258.568V276.5H260.248ZM252.492 276.724H257.672C257.644 276.799 257.616 277.046 257.588 277.466C257.504 278.259 257.416 278.992 257.322 279.664C257.229 280.336 257.098 281.031 256.93 281.75C257.63 282.254 257.98 283.108 257.98 284.312C257.98 284.797 257.924 285.292 257.812 285.796C257.7 286.291 257.565 286.729 257.406 287.112H255.544C255.75 286.757 255.936 286.314 256.104 285.782C256.282 285.25 256.37 284.76 256.37 284.312C256.37 284.097 256.352 283.915 256.314 283.766C255.577 285.577 254.616 286.482 253.43 286.482C252.87 286.482 252.432 286.272 252.114 285.852C251.797 285.432 251.638 284.919 251.638 284.312C251.638 283.873 251.727 283.449 251.904 283.038C252.091 282.618 252.371 282.259 252.744 281.96C253.118 281.652 253.575 281.451 254.116 281.358C254.592 281.283 254.98 281.251 255.278 281.26C255.502 280.233 255.675 279.235 255.796 278.264H252.492V276.724ZM253.486 284.942C253.962 284.867 254.42 284.158 254.858 282.814L254.396 282.87C254.014 282.935 253.734 283.117 253.556 283.416C253.388 283.715 253.304 284.032 253.304 284.368C253.304 284.536 253.323 284.676 253.36 284.788C253.398 284.9 253.44 284.951 253.486 284.942Z" fill="white"/>
<path d="M162.15 310.412C163.182 310.412 163.698 309.356 163.698 307.244V307.16L160.758 308.792C160.966 309.872 161.43 310.412 162.15 310.412ZM162.15 311.732C161.166 311.732 160.426 311.34 159.93 310.556C159.434 309.764 159.186 308.66 159.186 307.244C159.186 305.836 159.434 304.74 159.93 303.956C160.426 303.172 161.166 302.78 162.15 302.78C163.134 302.78 163.878 303.172 164.382 303.956C164.886 304.74 165.138 305.836 165.138 307.244C165.138 308.66 164.886 309.764 164.382 310.556C163.886 311.34 163.142 311.732 162.15 311.732ZM163.566 305.696C163.358 304.632 162.886 304.1 162.15 304.1C161.662 304.1 161.286 304.356 161.022 304.868C160.758 305.38 160.626 306.172 160.626 307.244V307.328L163.566 305.696ZM171.746 304.16H168.182V306.02C168.606 305.884 169.002 305.816 169.37 305.816C169.874 305.816 170.354 305.92 170.81 306.128C171.266 306.328 171.638 306.644 171.926 307.076C172.222 307.5 172.37 308.028 172.37 308.66C172.37 309.212 172.242 309.72 171.986 310.184C171.73 310.64 171.362 311.004 170.882 311.276C170.41 311.548 169.866 311.684 169.25 311.684C168.722 311.684 168.266 311.6 167.882 311.432C167.506 311.272 167.214 311.1 167.006 310.916C166.806 310.732 166.582 310.496 166.334 310.208L167.414 309.344C167.646 309.608 167.826 309.8 167.954 309.92C168.09 310.04 168.262 310.144 168.47 310.232C168.686 310.32 168.946 310.364 169.25 310.364C169.77 310.364 170.178 310.208 170.474 309.896C170.778 309.576 170.93 309.164 170.93 308.66C170.93 308.14 170.786 307.756 170.498 307.508C170.218 307.26 169.846 307.136 169.382 307.136C169.158 307.136 168.954 307.168 168.77 307.232C168.586 307.288 168.374 307.376 168.134 307.496C167.974 307.576 167.838 307.636 167.726 307.676C167.622 307.716 167.518 307.736 167.414 307.736C167.182 307.736 166.958 307.616 166.742 307.376V302.84H171.746V304.16ZM174.441 311.612C174.201 311.612 173.993 311.524 173.817 311.348C173.649 311.18 173.565 310.976 173.565 310.736C173.565 310.496 173.649 310.292 173.817 310.124C173.993 309.948 174.201 309.86 174.441 309.86C174.681 309.86 174.885 309.948 175.053 310.124C175.229 310.292 175.317 310.496 175.317 310.736C175.317 310.976 175.229 311.18 175.053 311.348C174.885 311.524 174.681 311.612 174.441 311.612ZM179.482 310.412C180.514 310.412 181.03 309.356 181.03 307.244V307.16L178.09 308.792C178.298 309.872 178.762 310.412 179.482 310.412ZM179.482 311.732C178.498 311.732 177.758 311.34 177.262 310.556C176.766 309.764 176.518 308.66 176.518 307.244C176.518 305.836 176.766 304.74 177.262 303.956C177.758 303.172 178.498 302.78 179.482 302.78C180.466 302.78 181.21 303.172 181.714 303.956C182.218 304.74 182.47 305.836 182.47 307.244C182.47 308.66 182.218 309.764 181.714 310.556C181.218 311.34 180.474 311.732 179.482 311.732ZM180.898 305.696C180.69 304.632 180.218 304.1 179.482 304.1C178.994 304.1 178.618 304.356 178.354 304.868C178.09 305.38 177.958 306.172 177.958 307.244V307.328L180.898 305.696ZM184.446 311.6C185.174 310.464 185.778 309.252 186.258 307.964C186.746 306.668 187.094 305.4 187.302 304.16H183.666V302.84H188.922C188.81 304.184 188.514 305.628 188.034 307.172C187.562 308.716 186.914 310.192 186.09 311.6H184.446ZM200.194 305.408C200.194 306.272 200.018 307.004 199.666 307.604C199.314 308.196 198.67 308.492 197.734 308.492C197.366 308.492 197.058 308.44 196.81 308.336C196.57 308.232 196.378 308.108 196.234 307.964C196.098 307.82 195.954 307.636 195.802 307.412C195.642 307.172 195.494 306.996 195.358 306.884C195.222 306.764 195.042 306.704 194.818 306.704C194.466 306.704 194.234 306.856 194.122 307.16C194.018 307.456 193.966 307.828 193.966 308.276H192.526C192.526 307.524 192.69 306.856 193.018 306.272C193.354 305.68 193.954 305.384 194.818 305.384C195.194 305.384 195.506 305.436 195.754 305.54C196.01 305.644 196.206 305.772 196.342 305.924C196.486 306.068 196.634 306.256 196.786 306.488C196.954 306.728 197.098 306.904 197.218 307.016C197.346 307.12 197.518 307.172 197.734 307.172C198.038 307.172 198.266 307.088 198.418 306.92C198.57 306.744 198.662 306.536 198.694 306.296C198.734 306.048 198.754 305.752 198.754 305.408H200.194ZM206.763 310.412C207.795 310.412 208.311 309.356 208.311 307.244V307.16L205.371 308.792C205.579 309.872 206.043 310.412 206.763 310.412ZM206.763 311.732C205.779 311.732 205.039 311.34 204.543 310.556C204.047 309.764 203.799 308.66 203.799 307.244C203.799 305.836 204.047 304.74 204.543 303.956C205.039 303.172 205.779 302.78 206.763 302.78C207.747 302.78 208.491 303.172 208.995 303.956C209.499 304.74 209.751 305.836 209.751 307.244C209.751 308.66 209.499 309.764 208.995 310.556C208.499 311.34 207.755 311.732 206.763 311.732ZM208.179 305.696C207.971 304.632 207.499 304.1 206.763 304.1C206.275 304.1 205.899 304.356 205.635 304.868C205.371 305.38 205.239 306.172 205.239 307.244V307.328L208.179 305.696ZM216.36 304.16H212.796V306.02C213.22 305.884 213.616 305.816 213.984 305.816C214.488 305.816 214.968 305.92 215.424 306.128C215.88 306.328 216.252 306.644 216.54 307.076C216.836 307.5 216.984 308.028 216.984 308.66C216.984 309.212 216.856 309.72 216.6 310.184C216.344 310.64 215.976 311.004 215.496 311.276C215.024 311.548 214.48 311.684 213.864 311.684C213.336 311.684 212.88 311.6 212.496 311.432C212.12 311.272 211.828 311.1 211.62 310.916C211.42 310.732 211.196 310.496 210.948 310.208L212.028 309.344C212.26 309.608 212.44 309.8 212.568 309.92C212.704 310.04 212.876 310.144 213.084 310.232C213.3 310.32 213.56 310.364 213.864 310.364C214.384 310.364 214.792 310.208 215.088 309.896C215.392 309.576 215.544 309.164 215.544 308.66C215.544 308.14 215.4 307.756 215.112 307.508C214.832 307.26 214.46 307.136 213.996 307.136C213.772 307.136 213.568 307.168 213.384 307.232C213.2 307.288 212.988 307.376 212.748 307.496C212.588 307.576 212.452 307.636 212.34 307.676C212.236 307.716 212.132 307.736 212.028 307.736C211.796 307.736 211.572 307.616 211.356 307.376V302.84H216.36V304.16ZM219.054 311.612C218.814 311.612 218.606 311.524 218.43 311.348C218.262 311.18 218.178 310.976 218.178 310.736C218.178 310.496 218.262 310.292 218.43 310.124C218.606 309.948 218.814 309.86 219.054 309.86C219.294 309.86 219.498 309.948 219.666 310.124C219.842 310.292 219.93 310.496 219.93 310.736C219.93 310.976 219.842 311.18 219.666 311.348C219.498 311.524 219.294 311.612 219.054 311.612ZM224.095 310.412C225.127 310.412 225.643 309.356 225.643 307.244V307.16L222.703 308.792C222.911 309.872 223.375 310.412 224.095 310.412ZM224.095 311.732C223.111 311.732 222.371 311.34 221.875 310.556C221.379 309.764 221.131 308.66 221.131 307.244C221.131 305.836 221.379 304.74 221.875 303.956C222.371 303.172 223.111 302.78 224.095 302.78C225.079 302.78 225.823 303.172 226.327 303.956C226.831 304.74 227.083 305.836 227.083 307.244C227.083 308.66 226.831 309.764 226.327 310.556C225.831 311.34 225.087 311.732 224.095 311.732ZM225.511 305.696C225.303 304.632 224.831 304.1 224.095 304.1C223.607 304.1 223.231 304.356 222.967 304.868C222.703 305.38 222.571 306.172 222.571 307.244V307.328L225.511 305.696ZM228.28 305.84C228.28 305.28 228.404 304.768 228.652 304.304C228.9 303.832 229.252 303.46 229.708 303.188C230.164 302.908 230.684 302.768 231.268 302.768C232.404 302.768 233.172 303.164 233.572 303.956C233.98 304.748 234.196 305.712 234.22 306.848V307.364C234.22 308.108 234.152 308.78 234.016 309.38C233.888 309.972 233.612 310.492 233.188 310.94C232.764 311.38 232.148 311.644 231.34 311.732C231.276 311.74 231.184 311.744 231.064 311.744C230.68 311.744 230.288 311.676 229.888 311.54C229.496 311.412 229.076 311.224 228.628 310.976L229.324 309.824C229.748 310.056 230.104 310.22 230.392 310.316C230.68 310.412 230.948 310.444 231.196 310.412C231.708 310.356 232.08 310.156 232.312 309.812C232.552 309.46 232.7 308.98 232.756 308.372C232.22 308.644 231.652 308.78 231.052 308.78C230.476 308.78 229.976 308.656 229.552 308.408C229.136 308.152 228.82 307.804 228.604 307.364C228.388 306.924 228.28 306.416 228.28 305.84ZM229.72 305.84C229.72 306.36 229.828 306.76 230.044 307.04C230.26 307.32 230.596 307.46 231.052 307.46C231.38 307.46 231.68 307.396 231.952 307.268C232.232 307.14 232.504 306.928 232.768 306.632C232.744 305.816 232.624 305.188 232.408 304.748C232.2 304.308 231.82 304.088 231.268 304.088C230.796 304.088 230.42 304.256 230.14 304.592C229.86 304.92 229.72 305.336 229.72 305.84Z" fill="white"/>
<g filter="url(#filter0_f_64_1309)">
<circle cx="313" cy="389" r="7" fill="#FFC3C3" fill-opacity="0.65"/>
</g>
<g filter="url(#filter1_f_64_1309)">
<circle cx="46.5" cy="339.5" r="4.5" fill="white" fill-opacity="0.57"/>
</g>
<circle cx="1.5" cy="273.5" r="1.5" fill="#FF768A"/>
<g filter="url(#filter2_f_64_1309)">
<circle cx="386" cy="172" r="10" fill="#FFE897" fill-opacity="0.75"/>
</g>
<circle cx="1.5" cy="1.5" r="1.5" transform="matrix(1 0 0 -1 382 172)" fill="#FEC489" fill-opacity="0.76"/>
<circle cx="1.5" cy="1.5" r="1.5" transform="matrix(1 0 0 -1 387 182)" fill="#FEC489" fill-opacity="0.76"/>
<path d="M17.5936 179.849C23.2804 171.023 35.2438 168.606 44.3146 174.451C44.4652 174.548 44.6134 174.648 44.7605 174.749C44.8531 174.596 44.9476 174.444 45.0448 174.293C50.8897 165.222 62.7826 162.479 71.6081 168.166C80.4335 173.853 82.8496 185.816 77.0051 194.887C76.9079 195.037 76.8082 195.187 76.7077 195.334C76.8599 195.426 77.0124 195.52 77.1631 195.617C86.2338 201.462 88.9767 213.355 83.2899 222.18C77.603 231.006 65.6402 233.422 56.5695 227.577C56.419 227.48 56.2702 227.382 56.1233 227.282C50.1832 236.004 38.5317 238.57 29.8485 232.975C21.1653 227.38 18.6851 215.709 24.1737 206.695C24.0221 206.603 23.871 206.508 23.7209 206.411C14.6504 200.566 11.907 188.674 17.5936 179.849Z" fill="url(#paint0_linear_64_1309)"/>
<g filter="url(#filter3_f_64_1309)">
<circle cx="54" cy="107" r="7" fill="white"/>
</g>
<g clip-path="url(#clip1_64_1309)">
<mask id="mask0_64_1309" style="mask-type:luminance" maskUnits="userSpaceOnUse" x="76" y="84" width="28" height="28">
<path d="M103.464 107.235L80.2295 111.464L76 88.2296L99.2348 84L103.464 107.235Z" fill="white"/>
</mask>
<g mask="url(#mask0_64_1309)">
<path d="M88.9161 93.2366C76.5339 81.5597 69.9504 91.0735 85.2395 98.5504C73.5594 110.935 83.0727 117.515 90.5525 102.226C102.935 113.905 109.518 104.389 94.2292 96.914C105.897 84.5301 96.3829 77.9466 88.9161 93.2366Z" fill="url(#paint1_linear_64_1309)" fill-opacity="0.86"/>
</g>
</g>
<g clip-path="url(#clip2_64_1309)">
<mask id="mask1_64_1309" style="mask-type:luminance" maskUnits="userSpaceOnUse" x="76" y="223" width="50" height="50">
<path d="M110.89 223L76 238.056L91.0557 272.946L125.946 257.89L110.89 223Z" fill="white"/>
</mask>
<g mask="url(#mask1_64_1309)">
<path fill-rule="evenodd" clip-rule="evenodd" d="M100.427 246.523C95.8333 237.865 85.2808 234.051 76.1246 238.002C80.0573 247.116 90.2744 251.581 99.5226 248.519C90.8647 253.112 87.0509 263.665 91.002 272.821C100.116 268.889 104.581 258.672 101.519 249.423C106.113 258.081 116.665 261.895 125.821 257.944C121.889 248.83 111.672 244.364 102.423 247.427C111.081 242.833 114.895 232.281 110.944 223.125C101.83 227.057 97.3645 237.274 100.427 246.523ZM100.973 247.973L100.974 247.973L100.973 247.972C100.973 247.972 100.972 247.973 100.972 247.973L100.973 247.973Z" fill="url(#paint2_linear_64_1309)" fill-opacity="0.9"/>
</g>
</g>
<g filter="url(#filter4_f_64_1309)">
<circle cx="367" cy="201" r="4" fill="#FFDC5E"/>
</g>
<circle cx="361.5" cy="150.5" r="4.5" fill="#FEC489" fill-opacity="0.84"/>
<circle cx="1.5" cy="1.5" r="1.5" transform="matrix(1 0 0 -1 374 163)" fill="#FEC489" fill-opacity="0.76"/>
<circle cx="14.5" cy="234.5" r="5.5" fill="#FF768A"/>
<circle cx="3.5" cy="3.5" r="3.5" transform="matrix(1 0 0 -1 4 254)" fill="#FF768A"/>
<g clip-path="url(#clip3_64_1309)">
<path fill-rule="evenodd" clip-rule="evenodd" d="M330.69 98.266C330.995 96.7788 331.012 95.2032 330.688 93.6168C329.423 87.4225 323.451 83.4108 317.349 84.6565C311.248 85.9023 307.326 91.9336 308.591 98.128C308.915 99.7143 309.547 101.157 310.412 102.406C307.83 100.01 304.2 98.8501 300.521 99.601C294.419 100.847 290.498 106.878 291.763 113.072C292.892 118.605 297.776 122.396 303.154 122.256C298.152 124.235 295.144 129.637 296.274 135.17C297.538 141.364 303.51 145.375 309.612 144.13C313.29 143.379 316.176 140.889 317.611 137.673C317.306 139.16 317.289 140.736 317.613 142.322C318.878 148.516 324.849 152.528 330.951 151.282C337.053 150.037 340.975 144.005 339.71 137.811C339.386 136.225 338.754 134.781 337.889 133.533C340.47 135.929 344.101 137.089 347.78 136.338C353.882 135.092 357.803 129.061 356.538 122.866C355.409 117.334 350.525 113.543 345.146 113.683C350.149 111.704 353.157 106.302 352.027 100.769C350.763 94.575 344.791 90.5633 338.689 91.809C335.011 92.56 332.125 95.0498 330.69 98.266ZM336.262 131.655C335.398 130.407 334.765 128.964 334.441 127.378C333.312 121.845 336.319 116.443 341.322 114.464C335.944 114.604 331.06 110.813 329.93 105.28C329.606 103.694 329.623 102.119 329.928 100.631C328.493 103.848 325.607 106.337 321.929 107.088C318.251 107.839 314.62 106.68 312.039 104.284C312.903 105.532 313.536 106.975 313.86 108.561C314.989 114.094 311.982 119.496 306.979 121.475C312.357 121.335 317.241 125.126 318.371 130.658C318.695 132.245 318.678 133.82 318.372 135.308C319.808 132.091 322.694 129.601 326.372 128.85C330.05 128.099 333.681 129.259 336.262 131.655Z" fill="url(#paint3_linear_64_1309)"/>
</g>
<path d="M280.496 57.4796C279.077 54.5909 276.784 51.9886 274.337 50.6816L271.559 49.1977L271.783 52.3414C271.981 55.1104 273.424 58.2653 275.483 60.7384C272.639 59.2356 269.257 58.4784 266.511 58.8606L263.394 59.2942L265.421 61.7067C267.206 63.8317 270.225 65.5363 273.342 66.3265C270.16 66.7837 266.981 68.1609 264.985 70.0862L262.719 72.2718L265.774 73.0317C268.466 73.701 271.907 73.3042 274.892 72.1093C272.587 74.352 270.825 77.3376 270.341 80.0706L269.792 83.1733L272.709 81.9903C275.278 80.9483 277.828 78.6017 279.54 75.8783C278.993 79.0496 279.321 82.5033 280.534 85.0001L281.912 87.8347L283.576 85.1607C285.041 82.8054 285.726 79.4054 285.511 76.1936C286.931 79.0824 289.223 81.6848 291.67 82.9918L294.448 84.4755L294.224 81.332C294.026 78.563 292.583 75.4081 290.524 72.935C293.368 74.4377 296.75 75.1949 299.496 74.8128L302.613 74.379L300.586 71.9666C298.801 69.8416 295.782 68.137 292.665 67.347C295.847 66.8898 299.026 65.5125 301.022 63.5872L303.288 61.4016L300.233 60.6419C297.541 59.9725 294.1 60.3694 291.115 61.5642C293.42 59.3215 295.182 56.3358 295.666 53.6029L296.215 50.5003L293.298 51.6833C290.729 52.7254 288.179 55.072 286.467 57.7953C287.014 54.6239 286.686 51.1703 285.473 48.6735L284.096 45.8389L282.432 48.5128C280.966 50.868 280.282 54.268 280.496 57.4796Z" fill="url(#paint4_linear_64_1309)" fill-opacity="0.87"/>
<g filter="url(#filter5_d_64_1309)">
<path d="M307.616 244.126C302.624 244.698 297.996 244.022 293.732 242.098C289.468 240.174 285.958 237.21 283.202 233.206C280.498 229.202 278.834 224.522 278.21 219.166C277.638 213.914 278.236 209.026 280.004 204.502C281.772 199.978 284.476 196.286 288.116 193.426C291.808 190.514 296.098 188.772 300.986 188.2C304.782 187.784 308.318 188.018 311.594 188.902C314.87 189.786 318.042 191.398 321.11 193.738C321.89 194.31 322.384 195.272 322.592 196.624C322.696 197.664 322.54 198.522 322.124 199.198L317.6 206.764L321.578 206.296C322.566 206.192 323.45 206.504 324.23 207.232C325.01 207.908 325.452 208.766 325.556 209.806L327.974 230.632C328.078 231.932 327.74 232.972 326.96 233.752C324.828 236.3 322.15 238.536 318.926 240.46C315.702 242.384 311.932 243.606 307.616 244.126ZM305.9 226.42C306.888 226.316 307.694 225.9 308.318 225.172C308.994 224.392 309.332 223.482 309.332 222.442L306.134 222.832C305.042 222.936 304.054 222.702 303.17 222.13C302.338 221.558 301.87 220.778 301.766 219.79L300.986 212.848C300.882 211.912 301.168 211.054 301.844 210.274C302.52 209.442 303.404 208.974 304.496 208.87L312.452 207.934C312.504 207.726 312.53 207.518 312.53 207.31C312.426 206.426 311.646 205.776 310.19 205.36C308.734 204.892 306.94 204.762 304.808 204.97C302.988 205.178 301.35 205.88 299.894 207.076C298.438 208.22 297.346 209.728 296.618 211.6C295.942 213.42 295.708 215.344 295.916 217.372C296.176 220.076 297.242 222.312 299.114 224.08C300.986 225.848 303.248 226.628 305.9 226.42Z" fill="white"/>
<path d="M236.306 246.598C235.318 246.702 234.434 246.416 233.654 245.74C232.874 245.064 232.432 244.18 232.328 243.088L227.024 196.912C226.92 195.82 227.154 194.858 227.726 194.026C228.35 193.142 229.156 192.648 230.144 192.544L240.83 191.296C242.078 191.192 243.066 191.582 243.794 192.466L257.21 208.222L254.948 193.714C254.844 192.622 255.078 191.66 255.65 190.828C256.222 189.944 257.002 189.45 257.99 189.346L269.456 188.019C270.444 187.916 271.302 188.228 272.03 188.956C272.81 189.632 273.252 190.516 273.356 191.608L278.66 237.784C278.764 238.876 278.53 239.864 277.958 240.748C277.386 241.58 276.606 242.048 275.618 242.152L265.478 243.322C264.906 243.374 264.36 243.296 263.84 243.088C263.32 242.88 262.878 242.568 262.514 242.152L248.396 225.538L250.736 240.982C250.84 242.074 250.606 243.036 250.034 243.868C249.462 244.752 248.682 245.246 247.694 245.35L236.306 246.598Z" fill="white"/>
<path d="M213.306 244.401C212.318 244.505 211.434 244.219 210.654 243.543C209.874 242.867 209.432 241.983 209.328 240.891L204.024 194.715C203.92 193.623 204.154 192.661 204.726 191.829C205.35 190.945 206.156 190.451 207.144 190.347L218.688 189.021C219.676 188.917 220.56 189.203 221.34 189.879C222.12 190.555 222.562 191.439 222.666 192.531L227.97 238.707C228.074 239.799 227.814 240.761 227.19 241.593C226.618 242.477 225.838 242.971 224.85 243.075L213.306 244.401Z" fill="white"/>
<path d="M175.531 230.917C174.439 230.813 173.555 230.319 172.879 229.435C172.203 228.551 171.917 227.589 172.021 226.549L173.269 215.473C173.373 214.433 173.867 213.575 174.751 212.899C175.635 212.171 176.623 211.885 177.715 212.041L197.137 214.225C198.229 214.329 199.113 214.823 199.789 215.707C200.465 216.591 200.751 217.553 200.647 218.593L199.399 229.669C199.295 230.709 198.801 231.593 197.917 232.321C197.033 232.997 196.045 233.257 194.953 233.101L175.531 230.917Z" fill="white"/>
<path d="M251.326 181.554C250.338 181.502 249.532 181.06 248.908 180.228C248.336 179.344 248.102 178.356 248.206 177.264L253.51 131.01C253.614 129.97 254.056 129.112 254.836 128.436C255.616 127.708 256.5 127.396 257.488 127.5L269.656 128.904C270.956 129.06 271.892 129.788 272.464 131.088L277.768 145.986L286.27 132.648C287.154 131.504 288.246 131.01 289.546 131.166L301.792 132.57C302.728 132.622 303.482 133.09 304.054 133.974C304.678 134.806 304.938 135.768 304.834 136.86L299.53 183.114C299.426 184.154 298.984 185.038 298.204 185.766C297.424 186.442 296.566 186.728 295.63 186.624L284.086 185.298C283.15 185.194 282.37 184.726 281.746 183.894C281.122 183.062 280.862 182.126 280.966 181.086L281.044 180.93L283.306 166.11L277.534 174.222C277.17 174.742 276.676 175.132 276.052 175.392C275.48 175.6 274.856 175.678 274.18 175.626C273.608 175.522 273.062 175.288 272.542 174.924C272.022 174.56 271.658 174.092 271.45 173.52L267.706 164.472L266.614 179.292C266.51 180.384 266.042 181.294 265.21 182.022C264.43 182.698 263.546 182.984 262.558 182.88L251.326 181.554Z" fill="white"/>
<path d="M218.679 175.884C214.051 174.844 210.099 172.712 206.823 169.488C203.547 166.264 201.285 162.39 200.037 157.866C198.737 153.29 198.659 148.558 199.803 143.67V143.514C200.947 138.574 203.105 134.336 206.277 130.8C209.449 127.264 213.219 124.768 217.587 123.312C222.007 121.804 226.531 121.596 231.159 122.688C235.787 123.728 239.739 125.86 243.015 129.084C246.291 132.308 248.553 136.208 249.801 140.784C251.101 145.308 251.179 150.014 250.035 154.902V155.058C248.891 159.998 246.733 164.236 243.561 167.772C240.389 171.308 236.593 173.804 232.173 175.26C227.805 176.768 223.307 176.976 218.679 175.884ZM223.281 156.696C225.257 157.164 226.999 156.67 228.507 155.214C230.067 153.758 231.107 151.912 231.627 149.676C232.095 147.752 231.861 146.088 230.925 144.684C230.041 143.28 228.637 142.37 226.713 141.954L226.479 141.876C224.451 141.408 222.735 141.694 221.331 142.734C219.927 143.722 219.043 145.048 218.679 146.712C218.211 148.74 218.341 150.794 219.069 152.874C219.849 154.954 221.253 156.228 223.281 156.696Z" fill="white"/>
<path d="M172.679 189.884C168.051 188.844 164.099 186.712 160.823 183.488C157.547 180.264 155.285 176.39 154.037 171.866C152.737 167.29 152.659 162.558 153.803 157.67V157.514C154.947 152.574 157.105 148.336 160.277 144.8C163.449 141.264 167.219 138.768 171.587 137.312C176.007 135.804 180.531 135.596 185.159 136.688C189.787 137.728 193.739 139.86 197.015 143.084C200.291 146.308 202.553 150.208 203.801 154.784C205.101 159.308 205.179 164.014 204.035 168.902V169.058C202.891 173.998 200.733 178.236 197.561 181.772C194.389 185.308 190.593 187.804 186.173 189.26C181.805 190.768 177.307 190.976 172.679 189.884ZM177.281 170.696C179.257 171.164 180.999 170.67 182.507 169.214C184.067 167.758 185.107 165.912 185.627 163.676C186.095 161.752 185.861 160.088 184.925 158.684C184.041 157.28 182.637 156.37 180.713 155.954L180.479 155.876C178.451 155.408 176.735 155.694 175.331 156.734C173.927 157.722 173.043 159.048 172.679 160.712C172.211 162.74 172.341 164.794 173.069 166.874C173.849 168.954 175.253 170.228 177.281 170.696Z" fill="white"/>
<path d="M119.092 180.152C118.104 180.048 117.298 179.58 116.674 178.748C116.102 177.864 115.894 176.875 116.05 175.784L121.276 129.608C121.38 128.515 121.822 127.631 122.602 126.955C123.434 126.227 124.344 125.915 125.332 126.02L136.798 127.345C137.786 127.449 138.566 127.944 139.138 128.828C139.762 129.66 139.996 130.622 139.84 131.714L136.33 162.758L153.022 164.708C154.01 164.76 154.79 165.228 155.362 166.112C155.934 166.944 156.168 167.88 156.064 168.92L154.738 180.152C154.634 181.243 154.192 182.128 153.412 182.804C152.684 183.532 151.826 183.844 150.838 183.74L119.092 180.152Z" fill="white"/>
<path d="M72.144 181.152C71.156 181.048 70.35 180.58 69.726 179.748C69.154 178.864 68.92 177.875 69.024 176.784L74.328 130.608C74.432 129.515 74.874 128.631 75.654 127.955C76.434 127.227 77.318 126.915 78.306 127.02L99.6 129.437C105.684 130.113 110.104 132.401 112.86 136.301C115.044 139.369 115.902 142.983 115.434 147.144C114.966 150.94 113.51 154.059 111.066 156.503C114.186 159.832 115.434 164.043 114.81 169.139C114.238 174.287 112.028 178.162 108.18 180.762C104.384 183.31 99.522 184.245 93.594 183.569L72.144 181.152ZM92.892 170.934C95.492 171.194 97.312 170.882 98.352 169.998C99.444 169.114 100.068 167.995 100.224 166.643C100.64 163.523 98.534 161.677 93.906 161.105L88.68 160.56C87.744 160.456 86.912 160.69 86.184 161.262C85.456 161.833 85.04 162.587 84.936 163.523L84.624 166.565C84.52 167.501 84.754 168.333 85.326 169.062C85.898 169.79 86.652 170.206 87.588 170.31L92.892 170.934ZM93.984 151.121C95.96 151.381 97.494 151.095 98.586 150.263C99.678 149.379 100.302 148.236 100.458 146.832C100.562 145.688 100.276 144.543 99.6 143.399C98.924 142.255 97.39 141.553 94.998 141.293L91.254 140.825C90.318 140.722 89.46 140.956 88.68 141.528C87.952 142.099 87.562 142.853 87.51 143.789L87.12 146.91C87.016 147.846 87.25 148.704 87.822 149.483C88.394 150.212 89.148 150.627 90.084 150.731L93.984 151.121Z" fill="white"/>
</g>
</g>
<defs>
<filter id="filter0_f_64_1309" x="296.9" y="372.9" width="32.2" height="32.2" filterUnits="userSpaceOnUse" color-interpolation-filters="sRGB">
<feFlood flood-opacity="0" result="BackgroundImageFix"/>
<feBlend mode="normal" in="SourceGraphic" in2="BackgroundImageFix" result="shape"/>
<feGaussianBlur stdDeviation="4.55" result="effect1_foregroundBlur_64_1309"/>
</filter>
<filter id="filter1_f_64_1309" x="32.9" y="325.9" width="27.2" height="27.2" filterUnits="userSpaceOnUse" color-interpolation-filters="sRGB">
<feFlood flood-opacity="0" result="BackgroundImageFix"/>
<feBlend mode="normal" in="SourceGraphic" in2="BackgroundImageFix" result="shape"/>
<feGaussianBlur stdDeviation="4.55" result="effect1_foregroundBlur_64_1309"/>
</filter>
<filter id="filter2_f_64_1309" x="366.9" y="152.9" width="38.2" height="38.2" filterUnits="userSpaceOnUse" color-interpolation-filters="sRGB">
<feFlood flood-opacity="0" result="BackgroundImageFix"/>
<feBlend mode="normal" in="SourceGraphic" in2="BackgroundImageFix" result="shape"/>
<feGaussianBlur stdDeviation="4.55" result="effect1_foregroundBlur_64_1309"/>
</filter>
<filter id="filter3_f_64_1309" x="37.9" y="90.9" width="32.2" height="32.2" filterUnits="userSpaceOnUse" color-interpolation-filters="sRGB">
<feFlood flood-opacity="0" result="BackgroundImageFix"/>
<feBlend mode="normal" in="SourceGraphic" in2="BackgroundImageFix" result="shape"/>
<feGaussianBlur stdDeviation="4.55" result="effect1_foregroundBlur_64_1309"/>
</filter>
<filter id="filter4_f_64_1309" x="353.9" y="187.9" width="26.2" height="26.2" filterUnits="userSpaceOnUse" color-interpolation-filters="sRGB">
<feFlood flood-opacity="0" result="BackgroundImageFix"/>
<feBlend mode="normal" in="SourceGraphic" in2="BackgroundImageFix" result="shape"/>
<feGaussianBlur stdDeviation="4.55" result="effect1_foregroundBlur_64_1309"/>
</filter>
<filter id="filter5_d_64_1309" x="64.6" y="117.6" width="273.792" height="139.418" filterUnits="userSpaceOnUse" color-interpolation-filters="sRGB">
<feFlood flood-opacity="0" result="BackgroundImageFix"/>
<feColorMatrix in="SourceAlpha" type="matrix" values="0 0 0 0 0 0 0 0 0 0 0 0 0 0 0 0 0 0 127 0" result="hardAlpha"/>
<feOffset dx="3" dy="3"/>
<feGaussianBlur stdDeviation="3.7"/>
<feComposite in2="hardAlpha" operator="out"/>
<feColorMatrix type="matrix" values="0 0 0 0 0.173357 0 0 0 0 0.0113154 0 0 0 0 0.523024 0 0 0 0.54 0"/>
<feBlend mode="normal" in2="BackgroundImageFix" result="effect1_dropShadow_64_1309"/>
<feBlend mode="normal" in="SourceGraphic" in2="effect1_dropShadow_64_1309" result="shape"/>
</filter>
<linearGradient id="paint0_linear_64_1309" x1="17.8798" y1="179.405" x2="127.652" y2="253.73" gradientUnits="userSpaceOnUse">
<stop stop-color="#FF8198"/>
<stop offset="0.120192" stop-color="#FF8198"/>
<stop offset="0.416676" stop-color="#FF6370"/>
<stop offset="0.789716" stop-color="#F9F62D"/>
</linearGradient>
<linearGradient id="paint1_linear_64_1309" x1="83.0225" y1="108.675" x2="93.8492" y2="88.041" gradientUnits="userSpaceOnUse">
<stop stop-color="#FFD9A0"/>
<stop offset="1" stop-color="#FFF5F1"/>
</linearGradient>
<linearGradient id="paint2_linear_64_1309" x1="106.878" y1="224.731" x2="94.3708" y2="261.686" gradientUnits="userSpaceOnUse">
<stop stop-color="#B0B9FF"/>
<stop offset="1" stop-color="#E7E9FF"/>
</linearGradient>
<linearGradient id="paint3_linear_64_1309" x1="340.551" y1="79.9198" x2="301.376" y2="174.671" gradientUnits="userSpaceOnUse">
<stop stop-color="#FFDC5E"/>
<stop offset="1" stop-color="#FF87F9"/>
</linearGradient>
<linearGradient id="paint4_linear_64_1309" x1="262.719" y1="72.2718" x2="303.288" y2="61.4014" gradientUnits="userSpaceOnUse">
<stop stop-color="#FFC9AE"/>
<stop offset="1" stop-color="#F8FBFE"/>
</linearGradient>
<clipPath id="clip0_64_1309">
<rect width="390" height="403" fill="white"/>
</clipPath>
<clipPath id="clip1_64_1309">
<rect width="23.6166" height="23.6166" fill="white" transform="matrix(0.983833 -0.17909 -0.17909 -0.983833 80.2295 111.464)"/>
</clipPath>
<clipPath id="clip2_64_1309">
<rect width="38" height="38" fill="white" transform="translate(76 238.056) rotate(-23.341)"/>
</clipPath>
<clipPath id="clip3_64_1309">
<rect width="68" height="68" fill="white" transform="translate(283.886 91.4883) rotate(-11.5385)"/>
</clipPath>
</defs>
</svg>
