<svg width="19" height="19" viewBox="0 0 19 19" fill="none" xmlns="http://www.w3.org/2000/svg">
<path d="M13.3447 11.4583H12.5334L12.2459 11.1771C13.2872 9.95216 13.8594 8.38824 13.8582 6.77084C13.8582 5.43169 13.4667 4.12262 12.7332 3.00916C11.9998 1.89571 10.9572 1.02787 9.7375 0.515402C8.51777 0.0029337 7.17561 -0.131151 5.88075 0.130103C4.58589 0.391357 3.39648 1.03622 2.46294 1.98313C1.52939 2.93005 0.893642 4.1365 0.636078 5.44991C0.378514 6.76332 0.510705 8.12471 1.01593 9.36192C1.52116 10.5991 2.37674 11.6566 3.47447 12.4006C4.5722 13.1446 5.86279 13.5417 7.18302 13.5417C8.83641 13.5417 10.3563 12.9271 11.527 11.9063L11.8043 12.1979V13.0208L16.9391 18.2188L18.4692 16.6667L13.3447 11.4583ZM7.18302 11.4583C4.6259 11.4583 2.56172 9.36459 2.56172 6.77084C2.56172 4.17709 4.6259 2.08334 7.18302 2.08334C9.74013 2.08334 11.8043 4.17709 11.8043 6.77084C11.8043 9.36459 9.74013 11.4583 7.18302 11.4583Z" fill="#A3A3A3"/>
</svg>
