<svg width="16" height="16" viewBox="0 0 16 16" fill="none" xmlns="http://www.w3.org/2000/svg">
<path d="M8.30762 0C9.0284 0 9.66372 1.31559 10.0547 3.33496C11.7617 2.20789 13.1629 1.75855 13.7021 2.29785C14.2413 2.83717 13.791 4.23752 12.6641 5.94434C14.6841 6.33529 16 6.97147 16 7.69238C16 8.43482 14.6046 9.08931 12.4814 9.47656C13.7418 11.3052 14.2697 12.8269 13.7021 13.3945C13.1682 13.9284 11.7903 13.4921 10.1064 12.3896C9.72144 14.5641 9.06068 16 8.30762 16C7.53346 16 6.85717 14.4825 6.47754 12.2051C4.66937 13.4426 3.16837 13.9573 2.60547 13.3945C2.0426 12.8317 2.55625 11.3298 3.79395 9.52148C1.51717 9.14182 4.86156e-05 8.46641 0 7.69238C-3.29137e-08 6.93941 1.43533 6.2776 3.60938 5.89258C2.50751 4.20921 2.07169 2.83168 2.60547 2.29785C3.17294 1.73038 4.69436 2.25783 6.52246 3.51758C6.90973 1.39487 7.56527 4.68922e-05 8.30762 0Z" fill="#4AA3FF"/>
</svg>
