<svg width="26" height="26" viewBox="0 0 26 26" fill="none" xmlns="http://www.w3.org/2000/svg">
<path fill-rule="evenodd" clip-rule="evenodd" d="M20.5861 9.6574C23.865 10.2928 26 11.3293 26 12.5C26 13.706 23.7345 14.7695 20.2868 15.3989C22.3339 18.3696 23.1877 20.8435 22.2655 21.7656C21.3984 22.6328 19.1593 21.9296 16.4252 20.1406C15.7994 23.6703 14.723 26 13.5 26C12.2427 26 11.1402 23.5376 10.5231 19.8403C7.58713 21.8488 5.14838 22.6797 4.2343 21.7656C3.32023 20.8515 4.1511 18.4128 6.15954 15.4769C2.46235 14.8597 0 13.7573 0 12.5C0 11.2771 2.3297 10.2006 5.85943 9.57479C4.07036 6.84068 3.36721 4.60154 4.23432 3.73443C5.15648 2.81227 7.63037 3.66606 10.6011 5.71322C11.2305 2.26551 12.294 0 13.5 0C14.6707 0 15.7072 2.13493 16.3426 5.41377C19.1141 3.58472 21.3897 2.85856 22.2655 3.73439C23.1414 4.61023 22.4152 6.88583 20.5861 9.6574Z" fill="#FFE078"/>
</svg>
