<svg width="8" height="8" viewBox="0 0 8 8" fill="none" xmlns="http://www.w3.org/2000/svg">
<path d="M3.99521 0.000859425C3.98706 0.00234587 3.9789 0.00457524 3.97149 0.00680481C3.88329 0.0268705 3.82104 0.10639 3.82326 0.197057V1.33857C3.82252 1.40694 3.8581 1.47086 3.91739 1.50578C3.97668 1.53997 4.04931 1.53997 4.1086 1.50578C4.1679 1.47086 4.20347 1.40694 4.20273 1.33857V0.197057C4.20495 0.142062 4.18272 0.089297 4.14344 0.0521383C4.10342 0.0142366 4.04931 -0.00434283 3.99521 0.000859425ZM1.2915 1.11859C1.22035 1.13123 1.16328 1.18325 1.14327 1.25236C1.12326 1.32222 1.14401 1.39654 1.19663 1.44559L2.003 2.25416C2.04895 2.31064 2.12233 2.33665 2.19348 2.3203C2.26389 2.30395 2.31947 2.24821 2.33578 2.17761C2.35208 2.10627 2.32614 2.03269 2.26982 1.98662L1.46345 1.17805C1.42417 1.13568 1.3671 1.11413 1.30929 1.11859C1.30336 1.11859 1.29743 1.11859 1.2915 1.11859ZM6.6752 1.11859C6.63221 1.12454 6.59219 1.14609 6.56254 1.17805L5.75618 1.98662C5.69985 2.03269 5.67391 2.10627 5.69021 2.17761C5.70652 2.24821 5.7621 2.30395 5.83251 2.3203C5.90366 2.33665 5.97704 2.31064 6.02299 2.25416L6.82936 1.44559C6.88865 1.38911 6.9057 1.30067 6.87086 1.22635C6.83529 1.15129 6.75672 1.10819 6.6752 1.11859ZM3.99521 2.09958C3.98928 2.10107 3.98335 2.1033 3.97742 2.10552C3.96556 2.10627 3.9537 2.1085 3.94185 2.11147C3.93962 2.1137 3.93814 2.11519 3.93592 2.11742C2.92944 2.16052 2.11566 2.98247 2.11566 4.0021C2.11566 5.04923 2.96872 5.90462 4.013 5.90462C5.05727 5.90462 5.91033 5.04923 5.91033 4.0021C5.91033 2.98618 5.10322 2.16721 4.10193 2.11742C4.09526 2.11742 4.09082 2.11147 4.08415 2.11147C4.06488 2.10404 4.04487 2.10032 4.02485 2.09958C4.02115 2.09958 4.0167 2.09958 4.013 2.09958C4.00707 2.09958 4.00114 2.09958 3.99521 2.09958ZM4.00114 2.48008C4.00484 2.48008 4.00929 2.48008 4.013 2.48008C4.01892 2.48008 4.02485 2.48008 4.03078 2.48008C4.86087 2.48975 5.53087 3.16752 5.53087 4.0021C5.53087 4.84337 4.85198 5.52412 4.013 5.52412C3.17476 5.52412 2.49512 4.84337 2.49512 4.0021C2.49512 3.16529 3.16809 2.48677 4.00114 2.48008ZM0.164956 3.81185C0.0604545 3.82671 -0.0129192 3.92407 0.00190377 4.02886C0.0167267 4.13364 0.113817 4.20722 0.218319 4.19235H1.35672C1.42491 4.1931 1.48865 4.15742 1.52348 4.09797C1.55757 4.03852 1.55757 3.96569 1.52348 3.90623C1.48865 3.84678 1.42491 3.81111 1.35672 3.81185H0.218319C0.21239 3.81185 0.206461 3.81185 0.200531 3.81185C0.194602 3.81185 0.188673 3.81185 0.182744 3.81185C0.176815 3.81185 0.170885 3.81185 0.164956 3.81185ZM6.61591 3.81185C6.5114 3.82671 6.43803 3.92407 6.45285 4.02886C6.46768 4.13364 6.56477 4.20722 6.66927 4.19235H7.80767C7.87586 4.1931 7.9396 4.15742 7.97443 4.09797C8.00852 4.03852 8.00852 3.96569 7.97443 3.90623C7.9396 3.84678 7.87586 3.81111 7.80767 3.81185H6.66927C6.66334 3.81185 6.65741 3.81185 6.65148 3.81185C6.64555 3.81185 6.63962 3.81185 6.63369 3.81185C6.62776 3.81185 6.62184 3.81185 6.61591 3.81185ZM2.11566 5.69059C2.07267 5.69654 2.03265 5.71809 2.003 5.75004L1.19663 6.55862C1.14031 6.60469 1.11437 6.67827 1.13067 6.74961C1.14698 6.82021 1.20256 6.87595 1.27297 6.8923C1.34412 6.90865 1.4175 6.88264 1.46345 6.82616L2.26982 6.01759C2.32614 5.96333 2.34319 5.87936 2.3128 5.80727C2.28316 5.73518 2.21127 5.6891 2.13344 5.69059C2.12752 5.69059 2.12159 5.69059 2.11566 5.69059ZM5.85104 5.69059C5.77989 5.70322 5.72282 5.75525 5.70281 5.82436C5.6828 5.89422 5.70355 5.96854 5.75618 6.01759L6.56254 6.82616C6.60849 6.88264 6.68187 6.90865 6.75302 6.8923C6.82343 6.87595 6.87901 6.82021 6.89532 6.74961C6.91162 6.67827 6.88568 6.60469 6.82936 6.55862L6.02299 5.75004C5.98741 5.71214 5.9385 5.69133 5.88662 5.69059C5.88069 5.69059 5.87476 5.69059 5.86883 5.69059C5.8629 5.69059 5.85697 5.69059 5.85104 5.69059ZM3.99521 6.46944C3.98706 6.47092 3.9789 6.47315 3.97149 6.47538C3.88329 6.49545 3.82104 6.57497 3.82326 6.66563V7.80715C3.82252 7.87552 3.8581 7.93943 3.91739 7.97436C3.97668 8.00855 4.04931 8.00855 4.1086 7.97436C4.1679 7.93943 4.20347 7.87552 4.20273 7.80715V6.66563C4.20495 6.61064 4.18272 6.55787 4.14344 6.52071C4.10342 6.48281 4.04931 6.46423 3.99521 6.46944Z" fill="#FDD807"/>
</svg>
